<svg xmlns="http://www.w3.org/2000/svg" xmlns:xlink="http://www.w3.org/1999/xlink" width="300" zoomAndPan="magnify" viewBox="0 0 224.87999 299.999988" height="400" preserveAspectRatio="xMidYMid meet" version="1.0"><defs><clipPath id="id1"><path d="M 6.234375 43.796875 L 179 43.796875 L 179 255.933594 L 6.234375 255.933594 Z M 6.234375 43.796875 " clip-rule="nonzero"/></clipPath><clipPath id="id2"><path d="M 92 70 L 218.371094 70 L 218.371094 197 L 92 197 Z M 92 70 " clip-rule="nonzero"/></clipPath></defs><path fill="#ffffff" d="M 98.902344 98.566406 L 29.402344 98.566406 C 27.582031 98.566406 26.09375 100.058594 26.09375 101.875 C 26.09375 103.695312 27.582031 105.1875 29.402344 105.1875 L 98.902344 105.1875 C 100.722656 105.1875 102.210938 103.695312 102.210938 101.875 C 102.210938 100.058594 100.722656 98.566406 98.902344 98.566406 Z M 98.902344 98.566406 " fill-opacity="1" fill-rule="nonzero"/><path fill="#ffffff" d="M 98.902344 111.804688 L 29.402344 111.804688 C 27.582031 111.804688 26.09375 113.292969 26.09375 115.113281 C 26.09375 116.933594 27.582031 118.425781 29.402344 118.425781 L 98.902344 118.425781 C 100.722656 118.425781 102.210938 116.933594 102.210938 115.113281 C 102.210938 113.292969 100.722656 111.804688 98.902344 111.804688 Z M 98.902344 111.804688 " fill-opacity="1" fill-rule="nonzero"/><path fill="#ffffff" d="M 98.902344 125.042969 L 29.402344 125.042969 C 27.582031 125.042969 26.09375 126.53125 26.09375 128.351562 C 26.09375 130.171875 27.582031 131.660156 29.402344 131.660156 L 98.902344 131.660156 C 100.722656 131.660156 102.210938 130.171875 102.210938 128.351562 C 102.210938 126.53125 100.722656 125.042969 98.902344 125.042969 Z M 98.902344 125.042969 " fill-opacity="1" fill-rule="nonzero"/><path fill="#ffffff" d="M 102.210938 222.671875 C 102.210938 220.851562 100.722656 219.363281 98.902344 219.363281 L 29.402344 219.363281 C 27.582031 219.363281 26.09375 220.851562 26.09375 222.671875 C 26.09375 224.492188 27.582031 225.980469 29.402344 225.980469 L 98.902344 225.980469 C 100.722656 225.980469 102.210938 224.492188 102.210938 222.671875 Z M 102.210938 222.671875 " fill-opacity="1" fill-rule="nonzero"/><path fill="#ffffff" d="M 29.402344 232.601562 C 27.582031 232.601562 26.09375 234.089844 26.09375 235.910156 C 26.09375 237.730469 27.582031 239.21875 29.402344 239.21875 L 77.390625 239.21875 C 79.210938 239.21875 80.699219 237.730469 80.699219 235.910156 C 80.699219 234.089844 79.210938 232.601562 77.390625 232.601562 Z M 29.402344 232.601562 " fill-opacity="1" fill-rule="nonzero"/><path fill="#ffffff" d="M 77.390625 173.03125 C 79.210938 173.03125 80.699219 171.542969 80.699219 169.722656 C 80.699219 167.902344 79.210938 166.410156 77.390625 166.410156 L 29.402344 166.410156 C 27.582031 166.410156 26.09375 167.902344 26.09375 169.722656 C 26.09375 171.542969 27.582031 173.03125 29.402344 173.03125 Z M 77.390625 173.03125 " fill-opacity="1" fill-rule="nonzero"/><path fill="#ffffff" d="M 26.09375 199.507812 C 26.09375 203.148438 29.070312 206.125 32.710938 206.125 L 45.949219 206.125 C 49.589844 206.125 52.566406 203.148438 52.566406 199.507812 L 52.566406 186.269531 C 52.566406 182.628906 49.589844 179.648438 45.949219 179.648438 L 32.710938 179.648438 C 29.070312 179.648438 26.09375 182.628906 26.09375 186.269531 Z M 32.710938 186.269531 L 45.949219 186.269531 L 45.949219 199.507812 L 32.710938 199.507812 Z M 32.710938 186.269531 " fill-opacity="1" fill-rule="nonzero"/><path fill="#ffffff" d="M 96.914062 157.808594 L 101.546875 153.171875 L 29.402344 153.171875 C 27.582031 153.171875 26.09375 154.664062 26.09375 156.484375 C 26.09375 158.304688 27.582031 159.792969 29.402344 159.792969 L 95.261719 159.792969 C 95.757812 158.964844 96.253906 158.304688 96.914062 157.808594 Z M 96.914062 157.808594 " fill-opacity="1" fill-rule="nonzero"/><path fill="#ffffff" d="M 158.140625 96.417969 C 157.3125 93.769531 154.832031 91.949219 151.851562 91.949219 L 118.757812 91.949219 C 115.117188 91.949219 112.136719 94.925781 112.136719 98.566406 L 112.136719 131.660156 C 112.136719 134.640625 114.125 136.957031 116.605469 137.949219 L 122.894531 131.660156 L 118.757812 131.660156 L 118.757812 98.566406 L 151.851562 98.566406 L 151.851562 102.703125 Z M 158.140625 96.417969 " fill-opacity="1" fill-rule="nonzero"/><path fill="#ffffff" d="M 128.519531 192.390625 L 125.375 193.382812 L 125.375 199.507812 C 125.375 203.148438 128.355469 206.125 131.996094 206.125 L 145.234375 206.125 C 148.875 206.125 151.851562 203.148438 151.851562 199.507812 L 151.851562 186.269531 C 151.851562 182.628906 148.875 179.648438 145.234375 179.648438 L 142.75 179.648438 L 136.132812 186.269531 L 145.234375 186.269531 L 145.234375 199.507812 L 131.996094 199.507812 L 131.996094 190.40625 C 131.003906 191.234375 129.84375 191.894531 128.519531 192.390625 Z M 128.519531 192.390625 " fill-opacity="1" fill-rule="nonzero"/><path fill="#ffffff" d="M 87.152344 186.269531 L 89.136719 179.648438 L 82.351562 179.648438 C 78.714844 179.648438 75.734375 182.628906 75.734375 186.269531 L 75.734375 199.507812 C 75.734375 203.148438 78.714844 206.125 82.351562 206.125 L 95.589844 206.125 C 98.570312 206.125 101.21875 203.972656 101.878906 201.160156 L 98.734375 202.152344 C 97.742188 202.648438 96.585938 202.816406 95.589844 202.816406 C 92.945312 202.816406 90.628906 201.824219 88.640625 200.003906 C 88.476562 199.835938 88.308594 199.671875 88.144531 199.507812 L 82.351562 199.507812 L 82.351562 186.269531 Z M 87.152344 186.269531 " fill-opacity="1" fill-rule="nonzero"/><g clip-path="url(#id1)"><path fill="#ffffff" d="M 178.328125 76.230469 L 178.328125 57.199219 C 178.328125 49.917969 172.371094 43.960938 165.089844 43.960938 L 19.472656 43.960938 C 12.191406 43.960938 6.234375 49.917969 6.234375 57.199219 L 6.234375 242.527344 C 6.234375 249.808594 12.191406 255.765625 19.472656 255.765625 L 165.089844 255.765625 C 172.371094 255.765625 178.328125 249.808594 178.328125 242.527344 L 178.328125 144.074219 L 171.710938 150.691406 L 171.710938 242.527344 C 171.710938 246.167969 168.730469 249.148438 165.089844 249.148438 L 19.472656 249.148438 C 15.832031 249.148438 12.855469 246.167969 12.855469 242.527344 L 12.855469 73.746094 L 171.710938 73.746094 L 171.710938 82.847656 Z M 12.855469 67.128906 L 12.855469 57.199219 C 12.855469 53.558594 15.832031 50.582031 19.472656 50.582031 L 165.089844 50.582031 C 168.730469 50.582031 171.710938 53.558594 171.710938 57.199219 L 171.710938 67.128906 Z M 12.855469 67.128906 " fill-opacity="1" fill-rule="nonzero"/></g><g clip-path="url(#id2)"><path fill="#ffffff" d="M 197.191406 71.429688 C 195.867188 70.105469 193.882812 70.105469 192.558594 71.429688 L 101.546875 162.441406 C 101.21875 162.769531 100.886719 163.265625 100.722656 163.765625 L 92.449219 191.894531 C 92.117188 193.050781 92.449219 194.375 93.273438 195.203125 C 93.9375 195.867188 94.765625 196.195312 95.589844 196.195312 C 95.921875 196.195312 96.253906 196.195312 96.585938 196.03125 L 126.371094 186.101562 C 126.867188 185.9375 127.363281 185.605469 127.691406 185.277344 L 217.046875 95.917969 C 218.371094 94.597656 218.371094 92.609375 217.046875 91.285156 Z M 100.554688 187.757812 L 106.84375 166.578125 L 107.175781 166.246094 L 121.734375 180.808594 Z M 127.03125 176.671875 L 111.808594 161.449219 L 183.292969 89.960938 L 198.515625 105.1875 Z M 203.148438 100.554688 L 187.925781 85.328125 L 194.875 78.378906 L 210.097656 93.601562 Z M 203.148438 100.554688 " fill-opacity="1" fill-rule="nonzero"/></g></svg>