<svg xmlns="http://www.w3.org/2000/svg" xmlns:xlink="http://www.w3.org/1999/xlink" width="300" zoomAndPan="magnify" viewBox="0 0 224.87999 299.999988" height="400" preserveAspectRatio="xMidYMid meet" version="1.0"><defs><clipPath id="id1"><path d="M 4.296875 29.671875 L 220.929688 29.671875 L 220.929688 270.292969 L 4.296875 270.292969 Z M 4.296875 29.671875 " clip-rule="nonzero"/></clipPath></defs><g clip-path="url(#id1)"><path fill="#ffffff" d="M 175.964844 200.574219 L 153.585938 193.132812 L 145.554688 177.09375 C 152.792969 169.738281 157.816406 160.007812 159.511719 149.863281 L 160.511719 143.867188 L 169.082031 143.867188 C 170.007812 143.867188 170.925781 143.773438 171.835938 143.59375 C 172.746094 143.410156 173.628906 143.144531 174.484375 142.789062 C 175.339844 142.433594 176.152344 142 176.921875 141.484375 C 177.695312 140.972656 178.40625 140.386719 179.0625 139.734375 C 179.71875 139.078125 180.304688 138.367188 180.820312 137.597656 C 181.335938 136.828125 181.769531 136.015625 182.125 135.160156 C 182.480469 134.304688 182.75 133.425781 182.929688 132.515625 C 183.113281 131.609375 183.203125 130.695312 183.203125 129.769531 L 183.203125 100.15625 C 183.203125 61.285156 151.523438 29.660156 112.589844 29.660156 C 73.550781 29.660156 41.972656 61.195312 41.972656 100.15625 L 41.972656 129.769531 C 41.976562 130.492188 42.03125 131.210938 42.144531 131.925781 C 42.253906 132.644531 42.421875 133.34375 42.640625 134.035156 C 42.859375 134.726562 43.132812 135.394531 43.453125 136.042969 C 43.777344 136.691406 44.148438 137.3125 44.566406 137.902344 C 44.984375 138.496094 45.449219 139.050781 45.953125 139.570312 C 46.457031 140.089844 46.996094 140.570312 47.574219 141.007812 C 48.152344 141.445312 48.761719 141.835938 49.398438 142.179688 C 50.039062 142.523438 50.699219 142.816406 51.382812 143.058594 L 51.382812 148.5625 C 51.382812 149.488281 51.476562 150.40625 51.65625 151.3125 C 51.839844 152.21875 52.105469 153.101562 52.460938 153.957031 C 52.816406 154.808594 53.253906 155.621094 53.769531 156.390625 C 54.285156 157.160156 54.867188 157.871094 55.523438 158.527344 C 56.179688 159.179688 56.894531 159.765625 57.664062 160.28125 C 58.433594 160.792969 59.246094 161.230469 60.105469 161.582031 C 60.960938 161.9375 61.84375 162.207031 62.75 162.386719 C 63.660156 162.570312 64.578125 162.660156 65.503906 162.660156 L 69.640625 162.660156 C 71.6875 167.109375 74.320312 171.175781 77.539062 174.867188 C 78.203125 175.632812 78.898438 176.375 79.613281 177.09375 L 71.59375 193.132812 L 49.21875 200.574219 C 23.203125 209.222656 4.332031 236.582031 4.332031 265.589844 C 4.332031 265.898438 4.359375 266.203125 4.421875 266.507812 C 4.480469 266.808594 4.570312 267.101562 4.691406 267.386719 C 4.808594 267.671875 4.953125 267.945312 5.125 268.199219 C 5.296875 268.457031 5.492188 268.695312 5.710938 268.914062 C 5.929688 269.128906 6.167969 269.324219 6.425781 269.496094 C 6.679688 269.667969 6.953125 269.8125 7.238281 269.929688 C 7.523438 270.050781 7.816406 270.136719 8.121094 270.199219 C 8.425781 270.257812 8.730469 270.289062 9.039062 270.289062 L 216.15625 270.289062 C 216.464844 270.289062 216.769531 270.257812 217.074219 270.199219 C 217.375 270.140625 217.671875 270.050781 217.957031 269.933594 C 218.242188 269.816406 218.511719 269.671875 218.769531 269.5 C 219.023438 269.328125 219.261719 269.132812 219.480469 268.917969 C 219.699219 268.699219 219.894531 268.464844 220.066406 268.207031 C 220.238281 267.953125 220.382812 267.679688 220.503906 267.398438 C 220.621094 267.113281 220.710938 266.820312 220.773438 266.519531 C 220.835938 266.214844 220.867188 265.910156 220.867188 265.601562 C 220.867188 236.582031 201.980469 209.238281 175.964844 200.574219 Z M 173.789062 129.769531 C 173.785156 130.078125 173.757812 130.382812 173.695312 130.683594 C 173.632812 130.984375 173.542969 131.28125 173.425781 131.5625 C 173.308594 131.847656 173.160156 132.117188 172.988281 132.375 C 172.816406 132.632812 172.625 132.867188 172.40625 133.085938 C 172.1875 133.304688 171.949219 133.5 171.691406 133.671875 C 171.4375 133.84375 171.164062 133.988281 170.878906 134.105469 C 170.59375 134.226562 170.300781 134.316406 170 134.375 C 169.695312 134.4375 169.390625 134.46875 169.082031 134.46875 L 161.898438 134.46875 C 163.09375 125.214844 163.890625 115.367188 164.210938 105.667969 C 164.210938 105.40625 164.230469 105.128906 164.238281 104.859375 L 173.789062 104.859375 Z M 56.109375 134.46875 C 55.796875 134.46875 55.492188 134.4375 55.1875 134.378906 C 54.882812 134.320312 54.589844 134.230469 54.304688 134.113281 C 54.015625 133.992188 53.746094 133.847656 53.488281 133.675781 C 53.230469 133.507812 52.992188 133.3125 52.773438 133.09375 C 52.550781 132.875 52.355469 132.636719 52.183594 132.382812 C 52.011719 132.125 51.867188 131.855469 51.746094 131.566406 C 51.628906 131.28125 51.539062 130.988281 51.476562 130.6875 C 51.414062 130.382812 51.382812 130.078125 51.382812 129.769531 L 51.382812 104.859375 L 60.9375 104.859375 C 60.953125 105.347656 60.972656 105.84375 60.992188 106.339844 L 60.992188 106.390625 C 61.320312 115.824219 62.109375 125.414062 63.277344 134.464844 Z M 65.519531 153.265625 C 65.210938 153.265625 64.90625 153.234375 64.605469 153.171875 C 64.300781 153.113281 64.007812 153.023438 63.722656 152.902344 C 63.4375 152.785156 63.167969 152.640625 62.910156 152.46875 C 62.652344 152.296875 62.417969 152.101562 62.199219 151.886719 C 61.980469 151.667969 61.785156 151.429688 61.613281 151.175781 C 61.441406 150.917969 61.296875 150.648438 61.175781 150.363281 C 61.058594 150.078125 60.96875 149.785156 60.90625 149.484375 C 60.847656 149.179688 60.816406 148.875 60.8125 148.566406 L 60.8125 143.867188 L 64.671875 143.867188 L 65.675781 149.863281 C 65.867188 151.003906 66.101562 152.140625 66.375 153.273438 Z M 60.824219 95.460938 L 51.5625 95.460938 C 53.949219 63.960938 80.28125 39.066406 112.585938 39.066406 C 144.75 39.066406 171.195312 63.960938 173.609375 95.460938 L 164.363281 95.460938 C 164.023438 69.503906 142.855469 48.464844 116.800781 48.464844 L 108.375 48.464844 C 82.320312 48.464844 61.148438 69.503906 60.808594 95.460938 Z M 108.375 57.863281 L 116.800781 57.863281 C 137.894531 57.863281 154.96875 75.089844 154.957031 96.125 C 154.957031 97.601562 154.957031 98.890625 154.917969 100.054688 L 154.917969 100.101562 L 149.035156 99.265625 C 145.039062 98.6875 141.113281 97.796875 137.257812 96.589844 C 133.40625 95.382812 129.671875 93.878906 126.058594 92.074219 C 122.445312 90.273438 119 88.195312 115.722656 85.839844 C 112.441406 83.484375 109.371094 80.886719 106.507812 78.039062 C 105.589844 77.117188 104.476562 76.65625 103.171875 76.660156 C 100.039062 76.667969 96.949219 77.015625 93.894531 77.703125 C 90.839844 78.394531 87.898438 79.40625 85.070312 80.742188 C 82.238281 82.078125 79.589844 83.707031 77.117188 85.625 C 74.648438 87.546875 72.417969 89.710938 70.425781 92.121094 C 72.394531 72.992188 88.601562 57.863281 108.375 57.863281 Z M 76.121094 153.265625 C 73.757812 145.441406 71.066406 122.410156 70.472656 107.65625 L 76.804688 99.222656 C 78.25 97.308594 79.886719 95.574219 81.707031 94.015625 C 83.53125 92.457031 85.5 91.113281 87.617188 89.980469 C 89.730469 88.851562 91.945312 87.960938 94.253906 87.308594 C 96.5625 86.65625 98.914062 86.261719 101.3125 86.121094 C 104.484375 89.125 107.867188 91.871094 111.464844 94.355469 C 115.0625 96.839844 118.828125 99.03125 122.761719 100.9375 C 126.695312 102.84375 130.753906 104.4375 134.9375 105.71875 C 139.117188 106.996094 143.371094 107.953125 147.699219 108.578125 L 154.628906 109.566406 C 154.167969 119.382812 153.21875 129.21875 151.863281 138.289062 C 151.433594 141.203125 151.089844 143.074219 150.222656 148.3125 C 147.730469 163.25 136.570312 176.738281 121.84375 180.414062 C 118.804688 181.171875 115.71875 181.550781 112.585938 181.550781 C 109.457031 181.550781 106.371094 181.171875 103.332031 180.414062 C 94.144531 178.121094 85.703125 171.769531 80.261719 162.660156 L 89.859375 162.660156 C 90.101562 163.34375 90.394531 164.003906 90.738281 164.640625 C 91.082031 165.277344 91.472656 165.886719 91.910156 166.464844 C 92.351562 167.042969 92.828125 167.582031 93.351562 168.085938 C 93.871094 168.589844 94.429688 169.050781 95.019531 169.46875 C 95.613281 169.886719 96.234375 170.257812 96.882812 170.582031 C 97.53125 170.902344 98.203125 171.175781 98.894531 171.394531 C 99.585938 171.613281 100.289062 171.78125 101.007812 171.890625 C 101.722656 172.003906 102.445312 172.0625 103.171875 172.0625 L 112.585938 172.0625 C 113.503906 172.050781 114.414062 171.949219 115.316406 171.757812 C 116.214844 171.566406 117.085938 171.292969 117.933594 170.933594 C 118.777344 170.574219 119.582031 170.136719 120.339844 169.617188 C 121.101562 169.101562 121.804688 168.519531 122.449219 167.863281 C 123.09375 167.210938 123.671875 166.5 124.179688 165.734375 C 124.683594 164.96875 125.113281 164.164062 125.460938 163.3125 C 125.8125 162.464844 126.074219 161.589844 126.253906 160.6875 C 126.429688 159.789062 126.519531 158.878906 126.519531 157.960938 C 126.519531 157.042969 126.429688 156.132812 126.253906 155.234375 C 126.074219 154.332031 125.8125 153.457031 125.460938 152.609375 C 125.113281 151.761719 124.683594 150.953125 124.179688 150.1875 C 123.671875 149.421875 123.09375 148.710938 122.449219 148.058594 C 121.804688 147.40625 121.101562 146.820312 120.339844 146.304688 C 119.582031 145.789062 118.777344 145.347656 117.933594 144.988281 C 117.085938 144.628906 116.214844 144.355469 115.316406 144.164062 C 114.414062 143.976562 113.503906 143.875 112.585938 143.863281 L 103.171875 143.863281 C 102.445312 143.863281 101.722656 143.917969 101.003906 144.027344 C 100.289062 144.140625 99.582031 144.304688 98.890625 144.523438 C 98.199219 144.742188 97.527344 145.015625 96.878906 145.335938 C 96.226562 145.660156 95.605469 146.03125 95.015625 146.449219 C 94.421875 146.867188 93.863281 147.328125 93.34375 147.832031 C 92.820312 148.335938 92.339844 148.878906 91.902344 149.457031 C 91.464844 150.03125 91.074219 150.640625 90.730469 151.28125 C 90.386719 151.917969 90.09375 152.578125 89.851562 153.261719 Z M 102.777344 189.929688 C 108.589844 191.164062 114.425781 191.292969 120.285156 190.328125 L 111.96875 199.109375 Z M 105.492188 205.941406 L 90.5625 221.703125 C 86.441406 213.832031 82.929688 205.699219 80.023438 197.304688 L 85.628906 186.109375 Z M 138.746094 184.515625 L 145.152344 197.304688 C 142.238281 205.703125 138.722656 213.835938 134.597656 221.710938 L 118.617188 205.757812 Z M 98.464844 157.96875 C 98.464844 157.660156 98.492188 157.355469 98.554688 157.050781 C 98.613281 156.75 98.703125 156.453125 98.820312 156.167969 C 98.941406 155.882812 99.085938 155.613281 99.257812 155.355469 C 99.429688 155.101562 99.625 154.863281 99.84375 154.644531 C 100.058594 154.425781 100.296875 154.230469 100.554688 154.058594 C 100.8125 153.886719 101.082031 153.742188 101.367188 153.625 C 101.65625 153.507812 101.949219 153.417969 102.25 153.359375 C 102.554688 153.296875 102.859375 153.265625 103.171875 153.265625 L 112.585938 153.265625 C 112.890625 153.273438 113.191406 153.308594 113.488281 153.375 C 113.785156 153.441406 114.074219 153.535156 114.355469 153.65625 C 114.632812 153.777344 114.898438 153.925781 115.148438 154.097656 C 115.398438 154.269531 115.632812 154.464844 115.84375 154.683594 C 116.058594 154.898438 116.246094 155.136719 116.414062 155.390625 C 116.582031 155.644531 116.722656 155.910156 116.835938 156.191406 C 116.953125 156.476562 117.039062 156.765625 117.097656 157.0625 C 117.15625 157.363281 117.183594 157.664062 117.183594 157.964844 C 117.183594 158.269531 117.15625 158.570312 117.097656 158.871094 C 117.039062 159.167969 116.953125 159.457031 116.835938 159.738281 C 116.722656 160.023438 116.582031 160.289062 116.414062 160.542969 C 116.246094 160.796875 116.058594 161.035156 115.84375 161.25 C 115.632812 161.46875 115.398438 161.664062 115.148438 161.835938 C 114.898438 162.007812 114.632812 162.15625 114.355469 162.277344 C 114.074219 162.398438 113.785156 162.492188 113.488281 162.558594 C 113.191406 162.625 112.890625 162.660156 112.585938 162.667969 L 103.171875 162.667969 C 102.863281 162.664062 102.554688 162.632812 102.253906 162.574219 C 101.949219 162.511719 101.65625 162.421875 101.371094 162.304688 C 101.085938 162.1875 100.816406 162.039062 100.558594 161.871094 C 100.304688 161.699219 100.066406 161.503906 99.847656 161.285156 C 99.628906 161.066406 99.433594 160.832031 99.261719 160.574219 C 99.089844 160.316406 98.945312 160.046875 98.828125 159.761719 C 98.707031 159.480469 98.617188 159.183594 98.558594 158.882812 C 98.496094 158.582031 98.464844 158.277344 98.464844 157.96875 Z M 13.910156 260.886719 C 15.777344 237.605469 31.296875 216.445312 52.1875 209.492188 L 72.003906 202.898438 C 75.644531 212.949219 80.105469 222.621094 85.394531 231.914062 L 85.417969 231.960938 C 89.304688 238.777344 93.601562 245.332031 98.304688 251.613281 L 104.109375 260.886719 Z M 112.585938 256.691406 L 106.203125 246.472656 C 106.132812 246.359375 106.054688 246.246094 105.972656 246.140625 C 102.15625 241.054688 98.621094 235.78125 95.367188 230.320312 L 112.167969 212.59375 L 129.855469 230.253906 C 126.59375 235.738281 123.042969 241.03125 119.210938 246.136719 C 118.96875 246.4375 119.296875 245.949219 112.585938 256.691406 Z M 121.066406 260.886719 L 126.855469 251.605469 C 131.597656 245.273438 135.921875 238.671875 139.832031 231.796875 L 139.902344 231.671875 C 145.132812 222.453125 149.554688 212.863281 153.164062 202.902344 L 172.980469 209.496094 C 193.875 216.445312 209.398438 237.609375 211.25 260.886719 Z M 121.066406 260.886719 " fill-opacity="1" fill-rule="nonzero"/></g><path fill="#ffffff" d="M 168.242188 215.550781 C 168.242188 215.855469 168.214844 216.15625 168.15625 216.453125 C 168.09375 216.75 168.007812 217.042969 167.890625 217.320312 C 167.773438 217.601562 167.632812 217.871094 167.460938 218.121094 C 167.292969 218.375 167.101562 218.609375 166.886719 218.824219 C 166.671875 219.039062 166.4375 219.230469 166.183594 219.398438 C 165.929688 219.570312 165.660156 219.710938 165.378906 219.828125 C 165.097656 219.945312 164.808594 220.03125 164.511719 220.089844 C 164.210938 220.152344 163.910156 220.179688 163.605469 220.179688 C 163.300781 220.179688 163 220.152344 162.699219 220.089844 C 162.402344 220.03125 162.109375 219.945312 161.828125 219.828125 C 161.546875 219.710938 161.28125 219.570312 161.027344 219.398438 C 160.773438 219.230469 160.539062 219.039062 160.324219 218.824219 C 160.109375 218.609375 159.917969 218.375 159.746094 218.121094 C 159.578125 217.867188 159.4375 217.601562 159.320312 217.320312 C 159.203125 217.039062 159.113281 216.75 159.054688 216.453125 C 158.996094 216.152344 158.964844 215.851562 158.964844 215.546875 C 158.964844 215.246094 158.996094 214.941406 159.054688 214.644531 C 159.117188 214.347656 159.203125 214.058594 159.320312 213.777344 C 159.4375 213.496094 159.582031 213.226562 159.75 212.976562 C 159.917969 212.722656 160.109375 212.488281 160.328125 212.273438 C 160.542969 212.058594 160.777344 211.867188 161.03125 211.699219 C 161.285156 211.53125 161.550781 211.386719 161.832031 211.269531 C 162.113281 211.15625 162.402344 211.066406 162.703125 211.007812 C 163 210.949219 163.304688 210.917969 163.609375 210.917969 C 163.914062 210.917969 164.214844 210.949219 164.511719 211.007812 C 164.8125 211.066406 165.101562 211.15625 165.382812 211.273438 C 165.664062 211.390625 165.929688 211.53125 166.183594 211.699219 C 166.4375 211.871094 166.671875 212.0625 166.886719 212.277344 C 167.101562 212.492188 167.292969 212.726562 167.460938 212.976562 C 167.632812 213.230469 167.773438 213.496094 167.890625 213.777344 C 168.007812 214.058594 168.09375 214.347656 168.15625 214.648438 C 168.214844 214.945312 168.242188 215.246094 168.242188 215.550781 Z M 182.734375 220.71875 C 182.492188 220.539062 182.234375 220.386719 181.964844 220.257812 C 181.691406 220.128906 181.410156 220.027344 181.117188 219.957031 C 180.828125 219.882812 180.53125 219.835938 180.230469 219.820312 C 179.929688 219.804688 179.632812 219.816406 179.335938 219.859375 C 179.039062 219.898438 178.746094 219.96875 178.460938 220.070312 C 178.179688 220.167969 177.90625 220.292969 177.648438 220.441406 C 177.386719 220.59375 177.144531 220.769531 176.917969 220.964844 C 176.691406 221.164062 176.488281 221.382812 176.304688 221.621094 C 176.121094 221.859375 175.960938 222.109375 175.828125 222.378906 C 175.695312 222.648438 175.585938 222.925781 175.507812 223.214844 C 175.429688 223.503906 175.378906 223.800781 175.355469 224.097656 C 175.332031 224.398438 175.339844 224.695312 175.375 224.996094 C 175.410156 225.292969 175.476562 225.585938 175.566406 225.871094 C 175.660156 226.15625 175.777344 226.429688 175.925781 226.691406 C 176.070312 226.953125 176.242188 227.199219 176.433594 227.429688 C 176.628906 227.660156 176.84375 227.867188 177.078125 228.054688 C 181.542969 231.496094 185.039062 235.734375 187.5625 240.769531 C 187.699219 241.042969 187.859375 241.300781 188.046875 241.542969 C 188.230469 241.785156 188.4375 242.007812 188.667969 242.210938 C 188.898438 242.414062 189.148438 242.589844 189.410156 242.742188 C 189.675781 242.894531 189.953125 243.019531 190.246094 243.117188 C 190.535156 243.214844 190.832031 243.285156 191.136719 243.324219 C 191.4375 243.363281 191.742188 243.371094 192.050781 243.351562 C 192.355469 243.332031 192.65625 243.28125 192.949219 243.199219 C 193.246094 243.121094 193.53125 243.011719 193.804688 242.875 C 194.078125 242.738281 194.335938 242.574219 194.578125 242.386719 C 194.820312 242.199219 195.039062 241.992188 195.242188 241.757812 C 195.441406 241.527344 195.617188 241.277344 195.765625 241.011719 C 195.917969 240.746094 196.042969 240.46875 196.136719 240.179688 C 196.234375 239.886719 196.296875 239.589844 196.335938 239.289062 C 196.371094 238.984375 196.378906 238.679688 196.355469 238.375 C 196.332031 238.070312 196.277344 237.769531 196.195312 237.476562 C 196.113281 237.183594 196 236.898438 195.863281 236.628906 C 192.699219 230.328125 188.324219 225.023438 182.734375 220.71875 Z M 182.734375 220.71875 " fill-opacity="1" fill-rule="nonzero"/></svg>