<svg xmlns="http://www.w3.org/2000/svg" xmlns:xlink="http://www.w3.org/1999/xlink" width="300" zoomAndPan="magnify" viewBox="0 0 224.87999 299.999988" height="400" preserveAspectRatio="xMidYMid meet" version="1.0"><defs><clipPath id="id1"><path d="M 8.476562 60 L 216 60 L 216 248.871094 L 8.476562 248.871094 Z M 8.476562 60 " clip-rule="nonzero"/></clipPath></defs><path fill="#ffffff" d="M 163.34375 132.273438 L 165.53125 131.203125 C 165.914062 131.011719 166.25 130.757812 166.53125 130.433594 C 166.816406 130.109375 167.027344 129.746094 167.164062 129.339844 C 167.304688 128.929688 167.359375 128.511719 167.328125 128.085938 C 167.300781 127.65625 167.191406 127.25 167.003906 126.863281 C 166.8125 126.476562 166.554688 126.144531 166.234375 125.859375 C 165.910156 125.578125 165.546875 125.367188 165.140625 125.226562 C 164.730469 125.089844 164.316406 125.035156 163.886719 125.0625 C 163.457031 125.089844 163.050781 125.199219 162.664062 125.390625 L 160.480469 126.457031 C 159.648438 126.753906 158.820312 126.753906 157.988281 126.457031 L 155.804688 125.390625 C 155.417969 125.199219 155.011719 125.089844 154.582031 125.0625 C 154.152344 125.035156 153.734375 125.089844 153.328125 125.226562 C 152.921875 125.367188 152.558594 125.578125 152.234375 125.859375 C 151.910156 126.144531 151.65625 126.476562 151.464844 126.863281 C 151.277344 127.25 151.167969 127.65625 151.136719 128.085938 C 151.109375 128.511719 151.164062 128.929688 151.304688 129.339844 C 151.441406 129.746094 151.652344 130.109375 151.933594 130.433594 C 152.21875 130.757812 152.554688 131.011719 152.9375 131.203125 L 155.125 132.273438 C 156.429688 132.855469 157.796875 133.148438 159.226562 133.148438 C 160.65625 133.148438 162.023438 132.855469 163.328125 132.273438 Z M 163.34375 132.273438 " fill-opacity="1" fill-rule="nonzero"/><path fill="#ffffff" d="M 154.378906 111.21875 C 154.378906 110.789062 154.296875 110.375 154.132812 109.980469 C 153.96875 109.582031 153.734375 109.234375 153.429688 108.929688 C 153.128906 108.625 152.777344 108.390625 152.378906 108.226562 C 151.984375 108.0625 151.570312 107.980469 151.140625 107.980469 L 144.667969 107.980469 C 144.238281 107.980469 143.824219 108.0625 143.429688 108.226562 C 143.03125 108.390625 142.683594 108.625 142.378906 108.929688 C 142.074219 109.234375 141.839844 109.582031 141.675781 109.980469 C 141.511719 110.375 141.429688 110.789062 141.429688 111.21875 C 141.429688 111.648438 141.511719 112.0625 141.675781 112.457031 C 141.839844 112.855469 142.074219 113.207031 142.378906 113.507812 C 142.683594 113.8125 143.03125 114.046875 143.429688 114.210938 C 143.824219 114.375 144.238281 114.457031 144.667969 114.457031 L 151.140625 114.457031 C 151.570312 114.457031 151.984375 114.375 152.378906 114.210938 C 152.777344 114.046875 153.128906 113.8125 153.429688 113.507812 C 153.734375 113.207031 153.96875 112.855469 154.132812 112.457031 C 154.296875 112.0625 154.378906 111.648438 154.378906 111.21875 Z M 154.378906 111.21875 " fill-opacity="1" fill-rule="nonzero"/><path fill="#ffffff" d="M 168.945312 114.457031 L 175.417969 114.457031 C 175.847656 114.457031 176.261719 114.375 176.65625 114.210938 C 177.054688 114.046875 177.40625 113.8125 177.707031 113.507812 C 178.011719 113.207031 178.246094 112.855469 178.410156 112.457031 C 178.574219 112.0625 178.65625 111.648438 178.65625 111.21875 C 178.65625 110.789062 178.574219 110.375 178.410156 109.980469 C 178.246094 109.582031 178.011719 109.234375 177.707031 108.929688 C 177.40625 108.625 177.054688 108.390625 176.65625 108.226562 C 176.261719 108.0625 175.847656 107.980469 175.417969 107.980469 L 168.945312 107.980469 C 168.515625 107.980469 168.101562 108.0625 167.707031 108.226562 C 167.308594 108.390625 166.960938 108.625 166.65625 108.929688 C 166.351562 109.234375 166.117188 109.582031 165.953125 109.980469 C 165.789062 110.375 165.707031 110.789062 165.707031 111.21875 C 165.707031 111.648438 165.789062 112.0625 165.953125 112.457031 C 166.117188 112.855469 166.351562 113.207031 166.65625 113.507812 C 166.960938 113.8125 167.308594 114.046875 167.707031 114.210938 C 168.101562 114.375 168.515625 114.457031 168.945312 114.457031 Z M 168.945312 114.457031 " fill-opacity="1" fill-rule="nonzero"/><g clip-path="url(#id1)"><path fill="#ffffff" d="M 212.644531 180.855469 L 199.695312 180.855469 L 199.695312 164.839844 C 199.667969 164.058594 199.566406 163.285156 199.386719 162.527344 C 199.210938 161.765625 198.957031 161.027344 198.636719 160.316406 C 198.3125 159.605469 197.921875 158.933594 197.46875 158.296875 C 197.011719 157.664062 196.5 157.078125 195.929688 156.542969 C 195.359375 156.007812 194.742188 155.535156 194.082031 155.121094 C 193.417969 154.710938 192.71875 154.363281 191.988281 154.089844 C 191.257812 153.8125 190.507812 153.609375 189.738281 153.480469 C 188.96875 153.351562 188.191406 153.300781 187.410156 153.324219 L 186.75 153.324219 C 180.761719 153.324219 175.886719 149 175.886719 143.609375 L 175.886719 140.371094 C 177.054688 139.667969 178.171875 138.898438 179.242188 138.058594 C 180.308594 137.21875 181.320312 136.316406 182.277344 135.347656 C 183.230469 134.378906 184.121094 133.355469 184.949219 132.277344 C 185.773438 131.195312 186.53125 130.066406 187.214844 128.890625 C 187.898438 127.71875 188.507812 126.503906 189.039062 125.25 C 189.570312 124 190.019531 122.71875 190.390625 121.410156 C 190.761719 120.101562 191.046875 118.773438 191.25 117.429688 C 191.453125 116.085938 191.570312 114.734375 191.605469 113.375 C 193.070312 112.144531 194.300781 110.714844 195.296875 109.082031 C 196.289062 107.449219 196.996094 105.699219 197.414062 103.835938 C 198.742188 98.539062 199.226562 87.640625 187.492188 74.003906 C 167.601562 50.910156 149.199219 64.5 142.273438 69.601562 C 141.480469 70.183594 140.800781 70.683594 140.378906 70.945312 C 139.449219 71.21875 138.5 71.328125 137.53125 71.269531 C 131.394531 71.382812 124.582031 72.691406 121.621094 86.863281 C 117.394531 106.816406 125.601562 116.417969 127.367188 118.199219 C 127.769531 120.558594 128.425781 122.84375 129.335938 125.054688 C 130.242188 127.269531 131.382812 129.355469 132.753906 131.316406 C 134.125 133.277344 135.695312 135.0625 137.460938 136.675781 C 139.230469 138.285156 141.152344 139.683594 143.226562 140.871094 L 143.226562 143.609375 C 143.226562 148.917969 138.371094 153.324219 132.367188 153.324219 L 131.054688 153.324219 C 130.277344 153.300781 129.5 153.351562 128.730469 153.480469 C 127.960938 153.609375 127.207031 153.8125 126.476562 154.089844 C 125.746094 154.363281 125.050781 154.710938 124.386719 155.121094 C 123.726562 155.535156 123.109375 156.007812 122.539062 156.542969 C 121.96875 157.078125 121.457031 157.664062 121 158.296875 C 120.546875 158.933594 120.15625 159.605469 119.832031 160.316406 C 119.511719 161.027344 119.257812 161.765625 119.082031 162.527344 C 118.902344 163.285156 118.800781 164.058594 118.773438 164.839844 L 118.773438 180.855469 L 93.847656 180.855469 C 94.257812 178.835938 94.472656 176.792969 94.496094 174.734375 C 95.476562 174.421875 96.386719 173.964844 97.222656 173.359375 C 98.058594 172.757812 98.78125 172.039062 99.390625 171.207031 C 99.996094 170.375 100.460938 169.46875 100.78125 168.488281 C 101.101562 167.507812 101.261719 166.5 101.261719 165.46875 L 101.261719 156.5625 C 101.261719 155.28125 101.195312 154.003906 101.070312 152.726562 C 100.945312 151.449219 100.757812 150.183594 100.507812 148.925781 C 100.257812 147.667969 99.945312 146.425781 99.574219 145.199219 C 99.203125 143.972656 98.773438 142.765625 98.28125 141.582031 C 97.792969 140.398438 97.242188 139.238281 96.640625 138.109375 C 96.035156 136.976562 95.378906 135.878906 94.664062 134.8125 C 93.953125 133.746094 93.191406 132.71875 92.378906 131.726562 C 91.566406 130.734375 90.707031 129.789062 89.800781 128.878906 C 88.894531 127.972656 87.945312 127.113281 86.953125 126.300781 C 85.964844 125.488281 84.9375 124.722656 83.871094 124.011719 C 82.804688 123.300781 81.707031 122.640625 80.578125 122.035156 C 79.445312 121.433594 78.289062 120.882812 77.105469 120.394531 C 75.921875 119.902344 74.71875 119.472656 73.492188 119.097656 C 72.265625 118.726562 71.023438 118.417969 69.765625 118.167969 C 68.507812 117.914062 67.242188 117.726562 65.96875 117.601562 C 64.691406 117.476562 63.414062 117.414062 62.132812 117.414062 C 60.851562 117.414062 59.574219 117.476562 58.296875 117.601562 C 57.023438 117.726562 55.757812 117.914062 54.5 118.167969 C 53.242188 118.417969 52 118.726562 50.773438 119.097656 C 49.550781 119.472656 48.34375 119.902344 47.160156 120.394531 C 45.976562 120.882812 44.820312 121.433594 43.6875 122.035156 C 42.558594 122.640625 41.460938 123.300781 40.394531 124.011719 C 39.328125 124.722656 38.300781 125.488281 37.3125 126.300781 C 36.320312 127.113281 35.371094 127.972656 34.464844 128.878906 C 33.558594 129.789062 32.699219 130.734375 31.886719 131.726562 C 31.074219 132.71875 30.3125 133.746094 29.601562 134.8125 C 28.886719 135.878906 28.230469 136.976562 27.625 138.109375 C 27.023438 139.238281 26.476562 140.398438 25.984375 141.582031 C 25.496094 142.765625 25.0625 143.972656 24.691406 145.199219 C 24.320312 146.425781 24.007812 147.667969 23.757812 148.925781 C 23.507812 150.183594 23.320312 151.449219 23.195312 152.726562 C 23.070312 154.003906 23.007812 155.28125 23.007812 156.5625 L 23.007812 166.003906 C 23.007812 166.503906 23.046875 167 23.128906 167.492188 C 23.210938 167.988281 23.332031 168.46875 23.492188 168.941406 C 23.652344 169.417969 23.847656 169.875 24.082031 170.316406 C 24.316406 170.753906 24.585938 171.175781 24.886719 171.574219 C 25.191406 171.96875 25.523438 172.339844 25.886719 172.683594 C 26.25 173.027344 26.636719 173.335938 27.050781 173.617188 C 27.464844 173.898438 27.898438 174.140625 28.351562 174.351562 C 28.804688 174.558594 29.273438 174.730469 29.753906 174.863281 C 29.785156 176.878906 30 178.878906 30.402344 180.855469 L 11.953125 180.855469 C 11.523438 180.855469 11.109375 180.9375 10.714844 181.101562 C 10.316406 181.265625 9.964844 181.5 9.664062 181.804688 C 9.359375 182.105469 9.125 182.457031 8.960938 182.855469 C 8.796875 183.25 8.714844 183.664062 8.714844 184.09375 L 8.714844 245.632812 C 8.714844 246.0625 8.796875 246.476562 8.960938 246.871094 C 9.125 247.269531 9.359375 247.617188 9.664062 247.921875 C 9.964844 248.226562 10.316406 248.460938 10.714844 248.625 C 11.109375 248.789062 11.523438 248.871094 11.953125 248.871094 C 12.382812 248.871094 12.792969 248.789062 13.191406 248.625 C 13.585938 248.460938 13.9375 248.226562 14.242188 247.921875 C 14.542969 247.617188 14.777344 247.269531 14.941406 246.871094 C 15.105469 246.476562 15.1875 246.0625 15.1875 245.632812 L 15.1875 187.332031 L 32.472656 187.332031 C 33.875 190.523438 35.742188 193.414062 38.070312 196.007812 C 40.402344 198.597656 43.078125 200.757812 46.101562 202.492188 L 46.101562 205.144531 C 46.101562 210.457031 41.246094 214.863281 35.242188 214.863281 L 33.929688 214.863281 C 33.152344 214.839844 32.375 214.894531 31.605469 215.023438 C 30.835938 215.152344 30.085938 215.355469 29.359375 215.632812 C 28.628906 215.910156 27.933594 216.253906 27.269531 216.667969 C 26.609375 217.082031 25.992188 217.554688 25.421875 218.089844 C 24.855469 218.621094 24.34375 219.207031 23.886719 219.839844 C 23.433594 220.476562 23.042969 221.148438 22.722656 221.859375 C 22.398438 222.570312 22.148438 223.304688 21.972656 224.066406 C 21.792969 224.828125 21.691406 225.597656 21.664062 226.378906 L 21.664062 242.394531 C 21.664062 242.824219 21.746094 243.234375 21.910156 243.632812 C 22.074219 244.03125 22.308594 244.378906 22.609375 244.683594 C 22.914062 244.988281 23.265625 245.222656 23.660156 245.386719 C 24.058594 245.550781 24.46875 245.632812 24.898438 245.632812 C 25.328125 245.632812 25.742188 245.550781 26.136719 245.386719 C 26.535156 245.222656 26.886719 244.988281 27.1875 244.683594 C 27.492188 244.378906 27.726562 244.03125 27.890625 243.632812 C 28.054688 243.234375 28.136719 242.824219 28.136719 242.394531 L 28.136719 226.378906 C 28.164062 226.023438 28.226562 225.671875 28.320312 225.328125 C 28.417969 224.984375 28.546875 224.65625 28.707031 224.335938 C 28.867188 224.019531 29.058594 223.71875 29.277344 223.4375 C 29.496094 223.15625 29.738281 222.898438 30.007812 222.664062 C 30.277344 222.433594 30.566406 222.226562 30.875 222.050781 C 31.1875 221.875 31.507812 221.726562 31.847656 221.613281 C 32.183594 221.5 32.53125 221.421875 32.882812 221.375 C 33.238281 221.328125 33.589844 221.316406 33.945312 221.339844 L 35.257812 221.339844 C 38.488281 221.359375 41.511719 220.570312 44.320312 218.976562 C 46.75 220.671875 49.371094 221.96875 52.195312 222.855469 C 55.015625 223.746094 57.90625 224.191406 60.863281 224.191406 C 64.21875 224.113281 67.496094 223.578125 70.703125 222.585938 C 73.910156 221.597656 76.917969 220.1875 79.734375 218.359375 C 81.207031 219.328125 82.785156 220.066406 84.46875 220.574219 C 86.15625 221.082031 87.878906 221.335938 89.640625 221.339844 L 90.253906 221.339844 C 90.613281 221.3125 90.96875 221.324219 91.324219 221.367188 C 91.679688 221.410156 92.027344 221.488281 92.367188 221.601562 C 92.710938 221.710938 93.035156 221.855469 93.347656 222.03125 C 93.660156 222.207031 93.953125 222.414062 94.222656 222.648438 C 94.496094 222.882812 94.742188 223.140625 94.964844 223.421875 C 95.183594 223.703125 95.375 224.003906 95.539062 224.324219 C 95.699219 224.644531 95.828125 224.976562 95.925781 225.324219 C 96.023438 225.667969 96.085938 226.019531 96.113281 226.378906 L 96.113281 242.394531 C 96.113281 242.824219 96.195312 243.234375 96.359375 243.632812 C 96.523438 244.03125 96.757812 244.378906 97.0625 244.683594 C 97.363281 244.988281 97.714844 245.222656 98.113281 245.386719 C 98.507812 245.550781 98.921875 245.632812 99.351562 245.632812 C 99.78125 245.632812 100.191406 245.550781 100.589844 245.386719 C 100.984375 245.222656 101.335938 244.988281 101.640625 244.683594 C 101.941406 244.378906 102.175781 244.03125 102.339844 243.632812 C 102.503906 243.234375 102.585938 242.824219 102.585938 242.394531 L 102.585938 226.378906 C 102.558594 225.597656 102.457031 224.824219 102.277344 224.0625 C 102.101562 223.304688 101.847656 222.566406 101.527344 221.855469 C 101.203125 221.144531 100.8125 220.472656 100.359375 219.835938 C 99.902344 219.199219 99.390625 218.617188 98.820312 218.082031 C 98.25 217.546875 97.632812 217.074219 96.972656 216.660156 C 96.308594 216.25 95.613281 215.902344 94.882812 215.628906 C 94.148438 215.351562 93.398438 215.148438 92.628906 215.019531 C 91.859375 214.890625 91.082031 214.839844 90.304688 214.863281 L 89.640625 214.863281 C 83.652344 214.863281 78.777344 210.539062 78.777344 205.144531 L 78.777344 201.90625 C 81.640625 200.179688 84.179688 198.058594 86.386719 195.546875 C 88.597656 193.035156 90.375 190.246094 91.726562 187.1875 L 209.40625 187.1875 L 209.40625 245.488281 C 209.40625 245.914062 209.488281 246.328125 209.652344 246.726562 C 209.816406 247.121094 210.050781 247.472656 210.355469 247.777344 C 210.660156 248.082031 211.007812 248.3125 211.40625 248.480469 C 211.800781 248.644531 212.214844 248.726562 212.644531 248.726562 C 213.074219 248.726562 213.484375 248.644531 213.882812 248.480469 C 214.28125 248.3125 214.628906 248.082031 214.933594 247.777344 C 215.238281 247.472656 215.46875 247.121094 215.632812 246.726562 C 215.800781 246.328125 215.882812 245.914062 215.882812 245.488281 L 215.882812 184.09375 C 215.882812 183.664062 215.800781 183.25 215.632812 182.855469 C 215.46875 182.457031 215.238281 182.105469 214.933594 181.804688 C 214.628906 181.5 214.28125 181.265625 213.882812 181.101562 C 213.484375 180.9375 213.074219 180.855469 212.644531 180.855469 Z M 49.304688 214.621094 C 50.34375 213.292969 51.140625 211.832031 51.695312 210.242188 C 52.25 208.648438 52.53125 207.011719 52.542969 205.324219 C 55.773438 206.339844 59.082031 206.832031 62.472656 206.804688 C 65.859375 206.773438 69.15625 206.21875 72.371094 205.144531 C 72.378906 208.207031 73.238281 211.007812 74.945312 213.550781 C 62.511719 220.5625 53.480469 217.179688 49.304688 214.621094 Z M 62.125 200.289062 C 58.488281 200.285156 55.007812 199.546875 51.6875 198.070312 C 51.144531 197.480469 50.472656 197.140625 49.679688 197.050781 C 48.667969 196.496094 47.695312 195.875 46.769531 195.191406 C 45.839844 194.507812 44.960938 193.761719 44.128906 192.960938 C 43.300781 192.160156 42.527344 191.304688 41.8125 190.398438 C 41.097656 189.496094 40.445312 188.546875 39.855469 187.554688 C 39.269531 186.558594 38.746094 185.53125 38.296875 184.472656 C 37.84375 183.410156 37.464844 182.320312 37.160156 181.207031 C 36.851562 180.097656 36.621094 178.96875 36.464844 177.824219 C 36.308594 176.679688 36.230469 175.53125 36.230469 174.378906 L 36.230469 174.230469 L 36.632812 174.039062 C 37.015625 174.875 37.453125 175.683594 37.949219 176.457031 C 38.445312 177.234375 38.992188 177.96875 39.59375 178.667969 C 40.195312 179.363281 40.84375 180.015625 41.535156 180.621094 C 42.230469 181.222656 42.964844 181.777344 43.738281 182.277344 C 44.511719 182.777344 45.3125 183.21875 46.148438 183.601562 C 46.984375 183.988281 47.84375 184.3125 48.726562 184.574219 C 49.609375 184.835938 50.503906 185.035156 51.417969 185.167969 C 52.328125 185.300781 53.242188 185.371094 54.160156 185.375 L 68.988281 185.375 C 69.914062 185.367188 70.835938 185.296875 71.75 185.160156 C 72.667969 185.023438 73.570312 184.820312 74.457031 184.554688 C 75.34375 184.289062 76.207031 183.960938 77.050781 183.570312 C 77.890625 183.183594 78.699219 182.734375 79.476562 182.226562 C 80.25 181.722656 80.988281 181.164062 81.683594 180.554688 C 82.382812 179.941406 83.03125 179.285156 83.632812 178.582031 C 84.238281 177.875 84.785156 177.132812 85.28125 176.351562 C 85.777344 175.566406 86.214844 174.753906 86.597656 173.90625 C 87.046875 174.167969 87.515625 174.386719 88.003906 174.570312 C 88 175.414062 87.949219 176.257812 87.863281 177.097656 C 87.773438 177.9375 87.644531 178.769531 87.472656 179.597656 C 87.304688 180.425781 87.09375 181.242188 86.84375 182.046875 C 86.59375 182.851562 86.304688 183.644531 85.980469 184.425781 C 85.652344 185.203125 85.289062 185.960938 84.886719 186.703125 C 84.484375 187.449219 84.046875 188.167969 83.578125 188.867188 C 83.105469 189.570312 82.601562 190.242188 82.0625 190.894531 C 81.523438 191.542969 80.957031 192.167969 80.355469 192.761719 C 79.757812 193.355469 79.132812 193.921875 78.480469 194.453125 C 77.824219 194.988281 77.148438 195.488281 76.445312 195.957031 C 75.742188 196.421875 75.015625 196.855469 74.273438 197.253906 C 73.527344 197.648438 72.765625 198.007812 71.984375 198.328125 C 71.207031 198.652344 70.410156 198.933594 69.605469 199.179688 C 68.796875 199.421875 67.980469 199.628906 67.152344 199.792969 C 66.324219 199.957031 65.488281 200.082031 64.648438 200.164062 C 63.808594 200.246094 62.96875 200.289062 62.125 200.289062 Z M 91.53125 168.710938 C 91.105469 168.710938 90.691406 168.628906 90.292969 168.460938 C 89.898438 168.296875 89.546875 168.0625 89.242188 167.761719 C 88.941406 167.457031 88.707031 167.105469 88.542969 166.710938 C 88.378906 166.3125 88.296875 165.898438 88.296875 165.46875 C 88.296875 165.039062 88.214844 164.628906 88.050781 164.230469 C 87.886719 163.835938 87.652344 163.484375 87.347656 163.179688 C 87.042969 162.875 86.695312 162.640625 86.296875 162.476562 C 85.902344 162.3125 85.488281 162.230469 85.058594 162.230469 C 84.628906 162.230469 84.214844 162.3125 83.820312 162.476562 C 83.421875 162.640625 83.074219 162.875 82.769531 163.179688 C 82.464844 163.484375 82.234375 163.835938 82.070312 164.230469 C 81.902344 164.628906 81.820312 165.039062 81.820312 165.46875 L 81.820312 166.28125 C 81.800781 167.109375 81.699219 167.933594 81.519531 168.742188 C 81.339844 169.554688 81.085938 170.339844 80.753906 171.105469 C 80.421875 171.867188 80.023438 172.589844 79.550781 173.273438 C 79.082031 173.960938 78.550781 174.59375 77.957031 175.175781 C 77.367188 175.761719 76.722656 176.28125 76.03125 176.738281 C 75.339844 177.199219 74.609375 177.585938 73.839844 177.90625 C 73.074219 178.226562 72.285156 178.46875 71.46875 178.632812 C 70.65625 178.800781 69.835938 178.886719 69.003906 178.894531 L 54.160156 178.894531 C 53.324219 178.894531 52.496094 178.8125 51.671875 178.648438 C 50.851562 178.484375 50.054688 178.242188 49.28125 177.921875 C 48.507812 177.601562 47.769531 177.210938 47.074219 176.746094 C 46.375 176.28125 45.730469 175.753906 45.136719 175.160156 C 44.542969 174.570312 44.011719 173.925781 43.542969 173.230469 C 43.078125 172.535156 42.679688 171.804688 42.355469 171.03125 C 42.03125 170.257812 41.789062 169.460938 41.621094 168.640625 C 41.453125 167.816406 41.363281 166.988281 41.359375 166.152344 C 41.359375 165.722656 41.277344 165.308594 41.113281 164.910156 C 40.949219 164.515625 40.714844 164.164062 40.410156 163.859375 C 40.109375 163.554688 39.757812 163.324219 39.363281 163.160156 C 38.964844 162.992188 38.550781 162.910156 38.121094 162.910156 C 37.695312 162.910156 37.28125 162.992188 36.882812 163.160156 C 36.488281 163.324219 36.136719 163.554688 35.835938 163.859375 C 35.53125 164.164062 35.296875 164.515625 35.132812 164.910156 C 34.96875 165.308594 34.886719 165.722656 34.886719 166.152344 C 34.871094 166.496094 34.792969 166.828125 34.648438 167.144531 C 34.503906 167.460938 34.304688 167.738281 34.054688 167.976562 C 33.800781 168.21875 33.511719 168.398438 33.1875 168.527344 C 32.867188 168.652344 32.53125 168.714844 32.183594 168.710938 C 31.824219 168.710938 31.480469 168.640625 31.148438 168.503906 C 30.816406 168.367188 30.523438 168.171875 30.273438 167.917969 C 30.019531 167.664062 29.824219 167.371094 29.6875 167.039062 C 29.546875 166.707031 29.480469 166.363281 29.480469 166.003906 L 29.480469 156.5625 C 29.480469 155.492188 29.53125 154.425781 29.636719 153.363281 C 29.742188 152.296875 29.898438 151.242188 30.105469 150.191406 C 30.316406 149.140625 30.574219 148.105469 30.886719 147.082031 C 31.195312 146.058594 31.554688 145.050781 31.964844 144.0625 C 32.375 143.074219 32.832031 142.109375 33.335938 141.164062 C 33.839844 140.222656 34.386719 139.304688 34.980469 138.417969 C 35.574219 137.527344 36.210938 136.667969 36.890625 135.839844 C 37.570312 135.015625 38.285156 134.222656 39.042969 133.464844 C 39.796875 132.710938 40.589844 131.992188 41.414062 131.3125 C 42.242188 130.636719 43.097656 130 43.988281 129.40625 C 44.878906 128.808594 45.792969 128.261719 46.734375 127.757812 C 47.679688 127.253906 48.644531 126.796875 49.632812 126.386719 C 50.621094 125.976562 51.625 125.617188 52.648438 125.304688 C 53.671875 124.996094 54.707031 124.734375 55.757812 124.527344 C 56.804688 124.320312 57.859375 124.160156 58.925781 124.058594 C 59.988281 123.953125 61.054688 123.898438 62.125 123.898438 C 63.195312 123.898438 64.261719 123.953125 65.324219 124.058594 C 66.390625 124.160156 67.445312 124.320312 68.492188 124.527344 C 69.542969 124.734375 70.578125 124.996094 71.601562 125.304688 C 72.625 125.617188 73.628906 125.976562 74.617188 126.386719 C 75.605469 126.796875 76.570312 127.253906 77.515625 127.757812 C 78.457031 128.261719 79.371094 128.808594 80.261719 129.40625 C 81.152344 130 82.007812 130.636719 82.835938 131.3125 C 83.660156 131.992188 84.453125 132.710938 85.207031 133.464844 C 85.964844 134.222656 86.679688 135.015625 87.359375 135.839844 C 88.039062 136.667969 88.675781 137.527344 89.269531 138.417969 C 89.863281 139.304688 90.410156 140.222656 90.914062 141.164062 C 91.417969 142.109375 91.875 143.074219 92.285156 144.0625 C 92.695312 145.050781 93.054688 146.058594 93.363281 147.082031 C 93.675781 148.105469 93.933594 149.140625 94.144531 150.191406 C 94.351562 151.242188 94.507812 152.296875 94.613281 153.363281 C 94.71875 154.425781 94.769531 155.492188 94.769531 156.5625 L 94.769531 165.46875 C 94.773438 166.367188 94.460938 167.132812 93.832031 167.769531 C 93.195312 168.402344 92.429688 168.714844 91.53125 168.710938 Z M 176.664062 156.726562 L 170.191406 163.363281 L 164.722656 157.746094 L 171.371094 150.929688 C 172.667969 153.289062 174.429688 155.222656 176.664062 156.726562 Z M 159.574219 153.746094 L 149.863281 143.851562 C 153.066406 144.839844 156.339844 145.3125 159.691406 145.269531 C 163.039062 145.230469 166.304688 144.675781 169.480469 143.609375 Z M 131.71875 99.882812 C 131.71875 100.0625 133.257812 103.867188 129.664062 110.410156 C 127.691406 106.636719 125.539062 99.542969 127.933594 88.257812 C 130.117188 77.925781 133.597656 77.859375 137.644531 77.792969 C 139.800781 77.941406 141.839844 77.519531 143.761719 76.53125 C 144.425781 76.125 145.167969 75.574219 146.125 74.910156 C 150.136719 71.851562 156.109375 67.496094 163.410156 67.496094 C 169.089844 67.496094 175.582031 70.167969 182.554688 78.28125 C 192.378906 89.695312 192.136719 98.230469 191.101562 102.3125 C 190.683594 104.105469 189.90625 105.722656 188.769531 107.171875 C 187.777344 104.523438 187.425781 101.789062 187.71875 98.976562 C 187.746094 98.738281 187.75 98.5 187.726562 98.261719 C 187.699219 98.023438 187.648438 97.789062 187.574219 97.5625 C 187.496094 97.332031 187.398438 97.117188 187.273438 96.914062 C 187.148438 96.707031 187.003906 96.519531 186.835938 96.34375 C 186.667969 96.171875 186.484375 96.019531 186.285156 95.886719 C 186.085938 95.757812 185.871094 95.648438 185.648438 95.5625 C 185.421875 95.476562 185.191406 95.417969 184.953125 95.386719 C 184.71875 95.351562 184.480469 95.34375 184.238281 95.367188 C 181.484375 95.628906 178.785156 95.34375 176.148438 94.507812 C 174.011719 93.738281 172.078125 92.613281 170.347656 91.140625 C 168.621094 89.664062 167.207031 87.929688 166.113281 85.941406 C 165.988281 85.722656 165.839844 85.519531 165.667969 85.335938 C 165.496094 85.152344 165.304688 84.992188 165.09375 84.851562 C 164.886719 84.710938 164.664062 84.597656 164.425781 84.511719 C 164.191406 84.425781 163.945312 84.363281 163.699219 84.335938 C 163.449219 84.304688 163.199219 84.300781 162.949219 84.328125 C 162.699219 84.359375 162.453125 84.414062 162.214844 84.5 C 161.980469 84.582031 161.753906 84.695312 161.542969 84.832031 C 161.332031 84.96875 161.140625 85.125 160.964844 85.308594 C 159.804688 86.527344 158.523438 87.605469 157.128906 88.546875 L 157.015625 88.546875 C 154.648438 90.117188 152.125 91.371094 149.441406 92.304688 C 144.5625 93.980469 139.550781 95 134.40625 95.367188 C 133.875 95.410156 133.386719 95.574219 132.9375 95.859375 C 132.488281 96.148438 132.128906 96.523438 131.867188 96.984375 C 131.613281 97.429688 131.476562 97.90625 131.449219 98.417969 C 131.425781 98.925781 131.515625 99.414062 131.71875 99.882812 Z M 133.597656 116.371094 C 137.917969 109.890625 138.710938 104.789062 138.453125 101.4375 C 142.964844 100.867188 147.363281 99.808594 151.644531 98.265625 C 154.804688 97.15625 157.78125 95.675781 160.578125 93.828125 C 161.289062 93.351562 161.96875 92.859375 162.617188 92.351562 C 164.058594 94.246094 165.746094 95.894531 167.675781 97.289062 C 169.605469 98.683594 171.695312 99.769531 173.945312 100.546875 C 176.265625 101.304688 178.644531 101.71875 181.082031 101.792969 C 181.089844 103.605469 181.347656 105.378906 181.855469 107.117188 C 182.363281 108.855469 183.105469 110.484375 184.078125 112.011719 C 184.359375 112.410156 184.667969 112.789062 185 113.148438 C 184.980469 113.949219 184.925781 114.75 184.832031 115.546875 C 184.738281 116.347656 184.609375 117.136719 184.441406 117.921875 C 184.273438 118.710938 184.070312 119.484375 183.832031 120.253906 C 183.59375 121.019531 183.320312 121.773438 183.011719 122.515625 C 182.703125 123.257812 182.359375 123.980469 181.980469 124.691406 C 181.605469 125.402344 181.195312 126.089844 180.757812 126.761719 C 180.316406 127.433594 179.84375 128.082031 179.34375 128.710938 C 178.84375 129.339844 178.3125 129.941406 177.757812 130.519531 C 177.199219 131.097656 176.617188 131.648438 176.007812 132.171875 C 175.398438 132.699219 174.769531 133.191406 174.113281 133.65625 C 173.460938 134.125 172.785156 134.558594 172.089844 134.960938 C 171.394531 135.363281 170.683594 135.730469 169.953125 136.066406 C 169.226562 136.40625 168.480469 136.707031 167.726562 136.972656 C 166.96875 137.242188 166.199219 137.472656 165.421875 137.667969 C 164.644531 137.863281 163.855469 138.023438 163.0625 138.144531 C 162.269531 138.269531 161.472656 138.351562 160.671875 138.402344 C 159.871094 138.449219 159.066406 138.460938 158.265625 138.433594 C 157.464844 138.410156 156.664062 138.34375 155.867188 138.246094 C 155.070312 138.144531 154.28125 138.007812 153.496094 137.832031 C 152.710938 137.65625 151.9375 137.449219 151.175781 137.203125 C 150.410156 136.957031 149.660156 136.675781 148.921875 136.359375 C 148.183594 136.042969 147.460938 135.691406 146.757812 135.308594 C 146.050781 134.925781 145.363281 134.511719 144.695312 134.0625 C 144.03125 133.617188 143.386719 133.140625 142.761719 132.632812 C 142.140625 132.125 141.542969 131.589844 140.96875 131.027344 C 140.398438 130.464844 139.851562 129.875 139.332031 129.261719 C 138.816406 128.648438 138.324219 128.011719 137.867188 127.355469 C 137.40625 126.695312 136.980469 126.015625 136.585938 125.316406 C 136.1875 124.617188 135.824219 123.902344 135.496094 123.167969 C 135.167969 122.4375 134.871094 121.691406 134.613281 120.929688 C 134.351562 120.171875 134.128906 119.402344 133.941406 118.621094 C 133.75 117.839844 133.597656 117.050781 133.484375 116.257812 Z M 146.964844 180.855469 L 125.246094 180.855469 L 125.246094 164.839844 C 125.273438 164.484375 125.335938 164.132812 125.429688 163.789062 C 125.527344 163.449219 125.65625 163.117188 125.816406 162.796875 C 125.976562 162.480469 126.167969 162.179688 126.386719 161.898438 C 126.605469 161.617188 126.847656 161.359375 127.117188 161.128906 C 127.386719 160.894531 127.675781 160.6875 127.984375 160.511719 C 128.296875 160.335938 128.617188 160.191406 128.957031 160.074219 C 129.292969 159.960938 129.640625 159.882812 129.992188 159.835938 C 130.347656 159.789062 130.699219 159.777344 131.054688 159.800781 L 132.367188 159.800781 C 133.617188 159.796875 134.851562 159.667969 136.074219 159.414062 L 146.660156 170.265625 C 147.289062 170.90625 148.054688 171.230469 148.957031 171.234375 Z M 142.5 156.726562 C 144.738281 155.230469 146.507812 153.300781 147.808594 150.945312 L 154.378906 157.761719 L 148.90625 163.382812 Z M 153.570312 180.855469 L 157 164.417969 L 159.574219 161.777344 L 161.09375 163.398438 L 164.753906 180.855469 Z M 193.222656 180.855469 L 171.371094 180.855469 L 169.332031 171.136719 C 169.910156 171.320312 170.488281 171.335938 171.074219 171.183594 C 171.65625 171.03125 172.15625 170.738281 172.570312 170.296875 L 183.15625 159.445312 C 184.339844 159.683594 185.539062 159.800781 186.75 159.800781 L 187.363281 159.800781 C 187.722656 159.777344 188.078125 159.785156 188.433594 159.828125 C 188.789062 159.871094 189.136719 159.949219 189.476562 160.0625 C 189.816406 160.171875 190.144531 160.316406 190.457031 160.496094 C 190.769531 160.671875 191.0625 160.875 191.332031 161.109375 C 191.605469 161.34375 191.851562 161.601562 192.074219 161.882812 C 192.292969 162.164062 192.484375 162.464844 192.648438 162.785156 C 192.808594 163.105469 192.9375 163.4375 193.035156 163.785156 C 193.132812 164.128906 193.195312 164.480469 193.222656 164.839844 Z M 193.222656 180.855469 " fill-opacity="1" fill-rule="nonzero"/></g><path fill="#ffffff" d="M 57.269531 82.070312 C 57.269531 82.5 57.1875 82.914062 57.023438 83.308594 C 56.859375 83.707031 56.625 84.054688 56.320312 84.359375 C 56.019531 84.664062 55.667969 84.898438 55.269531 85.0625 C 54.875 85.226562 54.460938 85.308594 54.03125 85.308594 C 53.601562 85.308594 53.191406 85.226562 52.792969 85.0625 C 52.398438 84.898438 52.046875 84.664062 51.742188 84.359375 C 51.441406 84.054688 51.207031 83.707031 51.042969 83.308594 C 50.878906 82.914062 50.796875 82.5 50.796875 82.070312 C 50.796875 81.640625 50.878906 81.226562 51.042969 80.832031 C 51.207031 80.433594 51.441406 80.082031 51.742188 79.78125 C 52.046875 79.476562 52.398438 79.242188 52.792969 79.078125 C 53.191406 78.914062 53.601562 78.832031 54.03125 78.832031 C 54.460938 78.832031 54.875 78.914062 55.269531 79.078125 C 55.667969 79.242188 56.019531 79.476562 56.320312 79.78125 C 56.625 80.082031 56.859375 80.433594 57.023438 80.832031 C 57.1875 81.226562 57.269531 81.640625 57.269531 82.070312 Z M 57.269531 82.070312 " fill-opacity="1" fill-rule="nonzero"/><path fill="#ffffff" d="M 70.21875 82.070312 C 70.21875 82.5 70.136719 82.914062 69.972656 83.308594 C 69.808594 83.707031 69.574219 84.054688 69.269531 84.359375 C 68.964844 84.664062 68.617188 84.898438 68.21875 85.0625 C 67.824219 85.226562 67.410156 85.308594 66.980469 85.308594 C 66.550781 85.308594 66.136719 85.226562 65.742188 85.0625 C 65.34375 84.898438 64.996094 84.664062 64.691406 84.359375 C 64.386719 84.054688 64.152344 83.707031 63.988281 83.308594 C 63.824219 82.914062 63.742188 82.5 63.742188 82.070312 C 63.742188 81.640625 63.824219 81.226562 63.988281 80.832031 C 64.152344 80.433594 64.386719 80.082031 64.691406 79.78125 C 64.996094 79.476562 65.34375 79.242188 65.742188 79.078125 C 66.136719 78.914062 66.550781 78.832031 66.980469 78.832031 C 67.410156 78.832031 67.824219 78.914062 68.21875 79.078125 C 68.617188 79.242188 68.964844 79.476562 69.269531 79.78125 C 69.574219 80.082031 69.808594 80.433594 69.972656 80.832031 C 70.136719 81.226562 70.21875 81.640625 70.21875 82.070312 Z M 70.21875 82.070312 " fill-opacity="1" fill-rule="nonzero"/><path fill="#ffffff" d="M 83.164062 82.070312 C 83.164062 82.5 83.082031 82.914062 82.917969 83.308594 C 82.753906 83.707031 82.519531 84.054688 82.21875 84.359375 C 81.914062 84.664062 81.5625 84.898438 81.167969 85.0625 C 80.769531 85.226562 80.359375 85.308594 79.929688 85.308594 C 79.5 85.308594 79.085938 85.226562 78.691406 85.0625 C 78.292969 84.898438 77.941406 84.664062 77.640625 84.359375 C 77.335938 84.054688 77.101562 83.707031 76.9375 83.308594 C 76.773438 82.914062 76.691406 82.5 76.691406 82.070312 C 76.691406 81.640625 76.773438 81.226562 76.9375 80.832031 C 77.101562 80.433594 77.335938 80.082031 77.640625 79.78125 C 77.941406 79.476562 78.292969 79.242188 78.691406 79.078125 C 79.085938 78.914062 79.5 78.832031 79.929688 78.832031 C 80.359375 78.832031 80.769531 78.914062 81.167969 79.078125 C 81.5625 79.242188 81.914062 79.476562 82.21875 79.78125 C 82.519531 80.082031 82.753906 80.433594 82.917969 80.832031 C 83.082031 81.226562 83.164062 81.640625 83.164062 82.070312 Z M 83.164062 82.070312 " fill-opacity="1" fill-rule="nonzero"/><path fill="#ffffff" d="M 92.875 61.015625 L 41.085938 61.015625 C 40.660156 61.015625 40.238281 61.058594 39.820312 61.140625 C 39.40625 61.222656 39 61.347656 38.605469 61.511719 C 38.214844 61.671875 37.839844 61.871094 37.488281 62.109375 C 37.132812 62.34375 36.808594 62.613281 36.507812 62.914062 C 36.207031 63.214844 35.9375 63.542969 35.703125 63.894531 C 35.464844 64.25 35.265625 64.621094 35.105469 65.015625 C 34.941406 65.410156 34.816406 65.8125 34.734375 66.230469 C 34.652344 66.648438 34.609375 67.070312 34.609375 67.496094 L 34.609375 96.644531 C 34.609375 97.070312 34.652344 97.492188 34.734375 97.910156 C 34.816406 98.324219 34.941406 98.730469 35.105469 99.125 C 35.265625 99.515625 35.464844 99.890625 35.703125 100.242188 C 35.9375 100.597656 36.207031 100.925781 36.507812 101.226562 C 36.808594 101.527344 37.132812 101.792969 37.488281 102.03125 C 37.839844 102.265625 38.214844 102.464844 38.605469 102.628906 C 39 102.792969 39.40625 102.914062 39.820312 102.996094 C 40.238281 103.082031 40.660156 103.121094 41.085938 103.121094 L 92.875 103.121094 C 93.300781 103.121094 93.722656 103.082031 94.140625 102.996094 C 94.554688 102.914062 94.960938 102.792969 95.355469 102.628906 C 95.746094 102.464844 96.121094 102.265625 96.472656 102.03125 C 96.828125 101.792969 97.152344 101.527344 97.453125 101.226562 C 97.753906 100.925781 98.023438 100.597656 98.257812 100.242188 C 98.496094 99.890625 98.695312 99.515625 98.855469 99.125 C 99.019531 98.730469 99.144531 98.324219 99.226562 97.910156 C 99.308594 97.492188 99.351562 97.070312 99.351562 96.644531 L 99.351562 93.617188 L 113.917969 84.839844 C 114.15625 84.695312 114.375 84.523438 114.570312 84.324219 C 114.765625 84.121094 114.929688 83.902344 115.066406 83.65625 C 115.207031 83.414062 115.308594 83.15625 115.382812 82.886719 C 115.453125 82.617188 115.488281 82.339844 115.488281 82.0625 C 115.488281 81.78125 115.453125 81.507812 115.382812 81.238281 C 115.308594 80.964844 115.207031 80.710938 115.066406 80.464844 C 114.929688 80.222656 114.765625 80 114.570312 79.800781 C 114.375 79.601562 114.15625 79.429688 113.917969 79.285156 L 99.351562 70.523438 L 99.351562 67.496094 C 99.351562 67.070312 99.308594 66.648438 99.226562 66.230469 C 99.144531 65.8125 99.019531 65.410156 98.855469 65.015625 C 98.695312 64.621094 98.496094 64.25 98.257812 63.894531 C 98.023438 63.542969 97.753906 63.214844 97.453125 62.914062 C 97.152344 62.613281 96.828125 62.34375 96.472656 62.109375 C 96.121094 61.871094 95.746094 61.671875 95.355469 61.511719 C 94.960938 61.347656 94.554688 61.222656 94.140625 61.140625 C 93.722656 61.058594 93.300781 61.015625 92.875 61.015625 Z M 106.003906 82.070312 L 96.015625 88.0625 C 95.535156 88.347656 95.101562 88.695312 94.710938 89.09375 C 94.324219 89.496094 93.992188 89.9375 93.714844 90.425781 C 93.441406 90.910156 93.230469 91.425781 93.089844 91.964844 C 92.945312 92.507812 92.875 93.058594 92.875 93.617188 L 92.875 96.644531 L 41.085938 96.644531 L 41.085938 67.496094 L 92.875 67.496094 L 92.875 70.523438 C 92.875 71.082031 92.945312 71.632812 93.089844 72.171875 C 93.230469 72.714844 93.441406 73.226562 93.714844 73.714844 C 93.988281 74.199219 94.324219 74.644531 94.710938 75.046875 C 95.101562 75.445312 95.535156 75.789062 96.015625 76.078125 Z M 106.003906 82.070312 " fill-opacity="1" fill-rule="nonzero"/></svg>