<svg xmlns="http://www.w3.org/2000/svg" xmlns:xlink="http://www.w3.org/1999/xlink" width="300" zoomAndPan="magnify" viewBox="0 0 224.87999 299.999988" height="400" preserveAspectRatio="xMidYMid meet" version="1.0"><defs><clipPath id="id1"><path d="M 9.421875 20 L 140 20 L 140 231 L 9.421875 231 Z M 9.421875 20 " clip-rule="nonzero"/></clipPath><clipPath id="id2"><path d="M 78 191 L 215.558594 191 L 215.558594 280 L 78 280 Z M 78 191 " clip-rule="nonzero"/></clipPath></defs><path fill="#ffffff" d="M 52.878906 196.429688 L 24.847656 196.429688 C 23.246094 196.429688 21.9375 195.121094 21.9375 193.519531 C 21.9375 191.90625 23.246094 190.609375 24.847656 190.609375 L 52.878906 190.609375 C 54.492188 190.609375 55.800781 191.90625 55.800781 193.519531 C 55.800781 195.121094 54.492188 196.429688 52.878906 196.429688 " fill-opacity="1" fill-rule="nonzero"/><path fill="#ffffff" d="M 124.113281 47.574219 L 24.847656 47.574219 C 23.246094 47.574219 21.9375 46.265625 21.9375 44.664062 C 21.9375 43.054688 23.246094 41.746094 24.847656 41.746094 L 124.113281 41.746094 C 125.726562 41.746094 127.03125 43.054688 127.03125 44.664062 C 127.03125 46.265625 125.726562 47.574219 124.113281 47.574219 " fill-opacity="1" fill-rule="nonzero"/><g clip-path="url(#id1)"><path fill="#ffffff" d="M 52.878906 230.484375 L 27.929688 230.484375 C 17.757812 230.484375 9.484375 222.203125 9.484375 212.03125 L 9.484375 38.703125 C 9.484375 28.523438 17.757812 20.25 27.929688 20.25 L 121.039062 20.25 C 131.210938 20.25 139.488281 28.523438 139.488281 38.703125 L 139.488281 166.703125 C 139.488281 168.316406 138.1875 169.613281 136.574219 169.613281 C 134.972656 169.613281 133.664062 168.316406 133.664062 166.703125 L 133.664062 38.703125 C 133.664062 31.738281 127.996094 26.070312 121.039062 26.070312 L 27.929688 26.070312 C 20.972656 26.070312 15.304688 31.738281 15.304688 38.703125 L 15.304688 212.03125 C 15.304688 219 20.972656 224.664062 27.929688 224.664062 L 52.878906 224.664062 C 54.492188 224.664062 55.800781 225.964844 55.800781 227.574219 C 55.800781 229.175781 54.492188 230.484375 52.878906 230.484375 " fill-opacity="1" fill-rule="nonzero"/></g><path fill="#ffffff" d="M 86.792969 36.941406 L 62.179688 36.941406 C 60.566406 36.941406 59.265625 35.632812 59.265625 34.03125 C 59.265625 32.417969 60.566406 31.121094 62.179688 31.121094 L 86.792969 31.121094 C 88.394531 31.121094 89.703125 32.417969 89.703125 34.03125 C 89.703125 35.632812 88.394531 36.941406 86.792969 36.941406 " fill-opacity="1" fill-rule="nonzero"/><path fill="#ffffff" d="M 76.84375 180.277344 C 73.859375 180.277344 71.4375 182.710938 71.4375 185.683594 C 71.4375 188.664062 73.859375 191.085938 76.84375 191.085938 C 79.824219 191.085938 82.25 188.664062 82.25 185.683594 C 82.25 182.710938 79.824219 180.277344 76.84375 180.277344 Z M 76.84375 196.917969 C 70.65625 196.917969 65.617188 191.878906 65.617188 185.683594 C 65.617188 179.5 70.65625 174.460938 76.84375 174.460938 C 83.039062 174.460938 88.070312 179.5 88.070312 185.683594 C 88.070312 191.878906 83.039062 196.917969 76.84375 196.917969 " fill-opacity="1" fill-rule="nonzero"/><path fill="#ffffff" d="M 65.636719 169.613281 C 60.210938 169.613281 55.800781 174.035156 55.800781 179.457031 L 55.800781 236.089844 C 55.800781 241.515625 60.210938 245.9375 65.636719 245.9375 L 171.789062 245.9375 C 177.214844 245.9375 181.625 241.515625 181.625 236.089844 L 181.625 179.457031 C 181.625 174.035156 177.214844 169.613281 171.789062 169.613281 Z M 171.789062 251.753906 L 65.636719 251.753906 C 56.996094 251.753906 49.96875 244.730469 49.96875 236.089844 L 49.96875 179.457031 C 49.96875 170.820312 56.996094 163.792969 65.636719 163.792969 L 171.789062 163.792969 C 180.417969 163.792969 187.457031 170.820312 187.457031 179.457031 L 187.457031 236.089844 C 187.457031 244.730469 180.417969 251.753906 171.789062 251.753906 " fill-opacity="1" fill-rule="nonzero"/><g clip-path="url(#id2)"><path fill="#ffffff" d="M 203.742188 279.800781 L 89.773438 279.800781 C 83.292969 279.800781 78.019531 274.527344 78.019531 268.046875 L 78.019531 248.847656 C 78.019531 247.242188 79.328125 245.9375 80.929688 245.9375 C 82.542969 245.9375 83.851562 247.242188 83.851562 248.847656 L 83.851562 268.046875 C 83.851562 271.3125 86.507812 273.980469 89.773438 273.980469 L 203.742188 273.980469 C 207.019531 273.980469 209.675781 271.3125 209.675781 268.046875 L 209.675781 203.585938 C 209.675781 200.3125 207.019531 197.65625 203.742188 197.65625 L 184.535156 197.65625 C 182.933594 197.65625 181.625 196.347656 181.625 194.746094 C 181.625 193.132812 182.933594 191.835938 184.535156 191.835938 L 203.742188 191.835938 C 210.234375 191.835938 215.496094 197.109375 215.496094 203.585938 L 215.496094 268.046875 C 215.496094 274.527344 210.234375 279.800781 203.742188 279.800781 " fill-opacity="1" fill-rule="nonzero"/></g><path fill="#ffffff" d="M 151.542969 180.277344 C 150.539062 180.277344 149.71875 181.101562 149.71875 182.113281 L 149.71875 189.261719 C 149.71875 190.265625 150.539062 191.085938 151.542969 191.085938 L 164.496094 191.085938 C 165.5 191.085938 166.320312 190.265625 166.320312 189.261719 L 166.320312 182.113281 C 166.320312 181.101562 165.5 180.277344 164.496094 180.277344 Z M 164.496094 196.917969 L 151.542969 196.917969 C 147.324219 196.917969 143.898438 193.480469 143.898438 189.261719 L 143.898438 182.113281 C 143.898438 177.894531 147.324219 174.460938 151.542969 174.460938 L 164.496094 174.460938 C 168.714844 174.460938 172.140625 177.894531 172.140625 182.113281 L 172.140625 189.261719 C 172.140625 193.480469 168.714844 196.917969 164.496094 196.917969 " fill-opacity="1" fill-rule="nonzero"/><path fill="#ffffff" d="M 35.699219 131.472656 C 34.097656 131.472656 32.789062 130.164062 32.789062 128.5625 L 32.789062 101.054688 C 32.789062 99.445312 34.097656 98.144531 35.699219 98.144531 C 37.3125 98.144531 38.621094 99.445312 38.621094 101.054688 L 38.621094 128.5625 C 38.621094 130.164062 37.3125 131.472656 35.699219 131.472656 " fill-opacity="1" fill-rule="nonzero"/><path fill="#ffffff" d="M 45.617188 119.386719 L 35.699219 119.386719 C 34.097656 119.386719 32.789062 118.089844 32.789062 116.476562 C 32.789062 114.875 34.097656 113.566406 35.699219 113.566406 L 45.617188 113.566406 C 48.265625 113.566406 50.414062 111.417969 50.414062 108.769531 C 50.414062 106.113281 48.265625 103.964844 45.617188 103.964844 L 35.699219 103.964844 C 34.097656 103.964844 32.789062 102.65625 32.789062 101.054688 C 32.789062 99.445312 34.097656 98.144531 35.699219 98.144531 L 45.617188 98.144531 C 51.480469 98.144531 56.246094 102.910156 56.246094 108.769531 C 56.246094 114.621094 51.480469 119.386719 45.617188 119.386719 " fill-opacity="1" fill-rule="nonzero"/><path fill="#ffffff" d="M 63.132812 131.472656 C 62.828125 131.472656 62.523438 131.421875 62.21875 131.320312 C 60.6875 130.8125 59.855469 129.171875 60.363281 127.648438 L 69.460938 100.144531 C 69.855469 98.976562 70.929688 98.175781 72.15625 98.144531 C 73.40625 98.105469 74.5 98.855469 74.945312 100 L 85.605469 127.507812 C 86.183594 129.007812 85.441406 130.691406 83.941406 131.269531 C 82.429688 131.855469 80.746094 131.105469 80.167969 129.605469 L 72.441406 109.671875 L 65.890625 129.472656 C 65.496094 130.691406 64.359375 131.472656 63.132812 131.472656 " fill-opacity="1" fill-rule="nonzero"/><path fill="#ffffff" d="M 79.378906 122.417969 L 66.125 122.417969 C 64.519531 122.417969 63.210938 121.109375 63.210938 119.507812 C 63.210938 117.894531 64.519531 116.597656 66.125 116.597656 L 79.378906 116.597656 C 80.992188 116.597656 82.289062 117.894531 82.289062 119.507812 C 82.289062 121.109375 80.992188 122.417969 79.378906 122.417969 " fill-opacity="1" fill-rule="nonzero"/><path fill="#ffffff" d="M 102.378906 131.472656 C 100.777344 131.472656 99.46875 130.164062 99.46875 128.5625 L 99.46875 112.582031 C 99.46875 110.972656 100.777344 109.664062 102.378906 109.664062 C 103.992188 109.664062 105.289062 110.972656 105.289062 112.582031 L 105.289062 128.5625 C 105.289062 130.164062 103.992188 131.472656 102.378906 131.472656 " fill-opacity="1" fill-rule="nonzero"/><path fill="#ffffff" d="M 102.429688 115.492188 C 101.679688 115.492188 100.9375 115.210938 100.371094 114.632812 L 88.839844 103.113281 C 87.703125 101.980469 87.703125 100.132812 88.839844 98.996094 C 89.976562 97.863281 91.820312 97.863281 92.957031 98.996094 L 102.429688 108.457031 L 111.210938 99.675781 C 112.347656 98.542969 114.183594 98.542969 115.328125 99.675781 C 116.464844 100.824219 116.464844 102.65625 115.328125 103.804688 L 104.488281 114.632812 C 103.921875 115.210938 103.171875 115.492188 102.429688 115.492188 " fill-opacity="1" fill-rule="nonzero"/><path fill="#ffffff" d="M 78.3125 230.484375 C 76.710938 230.484375 75.390625 229.175781 75.390625 227.574219 C 75.390625 225.964844 76.691406 224.664062 78.304688 224.664062 L 78.3125 224.664062 C 79.925781 224.664062 81.234375 225.964844 81.234375 227.574219 C 81.234375 229.175781 79.925781 230.484375 78.3125 230.484375 Z M 93.871094 230.484375 C 92.257812 230.484375 90.949219 229.175781 90.949219 227.574219 C 90.949219 225.964844 92.238281 224.664062 93.851562 224.664062 L 93.871094 224.664062 C 95.472656 224.664062 96.78125 225.964844 96.78125 227.574219 C 96.78125 229.175781 95.472656 230.484375 93.871094 230.484375 Z M 109.417969 230.484375 C 107.816406 230.484375 106.496094 229.175781 106.496094 227.574219 C 106.496094 225.964844 107.792969 224.664062 109.398438 224.664062 L 109.417969 224.664062 C 111.03125 224.664062 112.328125 225.964844 112.328125 227.574219 C 112.328125 229.175781 111.03125 230.484375 109.417969 230.484375 Z M 124.972656 230.484375 C 123.363281 230.484375 122.042969 229.175781 122.042969 227.574219 C 122.042969 225.964844 123.339844 224.664062 124.953125 224.664062 L 124.972656 224.664062 C 126.578125 224.664062 127.882812 225.964844 127.882812 227.574219 C 127.882812 229.175781 126.578125 230.484375 124.972656 230.484375 Z M 140.519531 230.484375 C 138.910156 230.484375 137.601562 229.175781 137.601562 227.574219 C 137.601562 225.964844 138.886719 224.664062 140.5 224.664062 L 140.519531 224.664062 C 142.125 224.664062 143.433594 225.964844 143.433594 227.574219 C 143.433594 229.175781 142.125 230.484375 140.519531 230.484375 Z M 156.066406 230.484375 C 154.464844 230.484375 153.148438 229.175781 153.148438 227.574219 C 153.148438 225.964844 154.445312 224.664062 156.046875 224.664062 L 156.066406 224.664062 C 157.679688 224.664062 158.980469 225.964844 158.980469 227.574219 C 158.980469 229.175781 157.679688 230.484375 156.066406 230.484375 " fill-opacity="1" fill-rule="nonzero"/><path fill="#ffffff" d="M 106.050781 266.832031 C 104.4375 266.832031 103.128906 265.523438 103.128906 263.921875 C 103.128906 262.308594 104.417969 261.003906 106.03125 261.003906 L 106.050781 261.003906 C 107.652344 261.003906 108.960938 262.308594 108.960938 263.921875 C 108.960938 265.523438 107.652344 266.832031 106.050781 266.832031 Z M 121.597656 266.832031 C 119.996094 266.832031 118.675781 265.523438 118.675781 263.921875 C 118.675781 262.308594 119.972656 261.003906 121.578125 261.003906 L 121.597656 261.003906 C 123.210938 261.003906 124.507812 262.308594 124.507812 263.921875 C 124.507812 265.523438 123.210938 266.832031 121.597656 266.832031 Z M 137.144531 266.832031 C 135.542969 266.832031 134.222656 265.523438 134.222656 263.921875 C 134.222656 262.308594 135.519531 261.003906 137.125 261.003906 L 137.144531 261.003906 C 138.757812 261.003906 140.066406 262.308594 140.066406 263.921875 C 140.066406 265.523438 138.757812 266.832031 137.144531 266.832031 Z M 152.699219 266.832031 C 151.089844 266.832031 149.78125 265.523438 149.78125 263.921875 C 149.78125 262.308594 151.066406 261.003906 152.679688 261.003906 L 152.699219 261.003906 C 154.304688 261.003906 155.613281 262.308594 155.613281 263.921875 C 155.613281 265.523438 154.304688 266.832031 152.699219 266.832031 Z M 168.246094 266.832031 C 166.644531 266.832031 165.328125 265.523438 165.328125 263.921875 C 165.328125 262.308594 166.625 261.003906 168.226562 261.003906 L 168.246094 261.003906 C 169.859375 261.003906 171.160156 262.308594 171.160156 263.921875 C 171.160156 265.523438 169.859375 266.832031 168.246094 266.832031 Z M 183.804688 266.832031 C 182.191406 266.832031 180.875 265.523438 180.875 263.921875 C 180.875 262.308594 182.171875 261.003906 183.785156 261.003906 L 183.804688 261.003906 C 185.40625 261.003906 186.714844 262.308594 186.714844 263.921875 C 186.714844 265.523438 185.40625 266.832031 183.804688 266.832031 " fill-opacity="1" fill-rule="nonzero"/><path fill="#ffffff" d="M 90.898438 196.917969 C 89.285156 196.917969 87.988281 195.609375 87.988281 193.996094 C 87.988281 192.394531 89.285156 191.085938 90.898438 191.085938 C 93.878906 191.085938 96.304688 188.664062 96.304688 185.683594 C 96.304688 182.710938 93.878906 180.277344 90.898438 180.277344 C 89.285156 180.277344 87.988281 178.980469 87.988281 177.367188 C 87.988281 175.765625 89.285156 174.460938 90.898438 174.460938 C 97.09375 174.460938 102.125 179.5 102.125 185.683594 C 102.125 191.878906 97.09375 196.917969 90.898438 196.917969 " fill-opacity="1" fill-rule="nonzero"/></svg>