<svg xmlns="http://www.w3.org/2000/svg" xmlns:xlink="http://www.w3.org/1999/xlink" width="300" zoomAndPan="magnify" viewBox="0 0 224.87999 299.999988" height="400" preserveAspectRatio="xMidYMid meet" version="1.0"><defs><clipPath id="id1"><path d="M 42.269531 89 L 182.445312 89 L 182.445312 283 L 42.269531 283 Z M 42.269531 89 " clip-rule="nonzero"/></clipPath><clipPath id="id2"><path d="M 130 16.976562 L 146 16.976562 L 146 33 L 130 33 Z M 130 16.976562 " clip-rule="nonzero"/></clipPath></defs><g clip-path="url(#id1)"><path fill="#ffffff" d="M 75.503906 268.726562 C 74.929688 275.792969 80.183594 281.984375 87.234375 282.558594 C 94.289062 283.132812 100.472656 277.878906 101.046875 270.8125 L 107.003906 197.675781 C 109.1875 197.726562 111.023438 197.75 112.375 197.75 C 113.726562 197.75 115.5625 197.726562 117.746094 197.675781 L 123.703125 270.8125 C 124.277344 277.878906 130.464844 283.132812 137.515625 282.558594 C 144.570312 281.984375 149.820312 275.792969 149.246094 268.726562 L 143.324219 196.042969 C 157.179688 194.519531 170.464844 191.722656 172.296875 186.679688 C 173.792969 182.5625 175.339844 172.398438 176.34375 160.207031 C 179.582031 159.234375 182.023438 156.320312 182.234375 152.746094 C 182.445312 149.171875 180.363281 146.003906 177.265625 144.652344 C 177.699219 132.40625 177.46875 119.808594 176.078125 110.070312 C 176.078125 106.570312 173.097656 103.734375 169.421875 103.734375 C 165.746094 103.734375 162.769531 106.570312 162.769531 110.070312 C 162.769531 111.296875 163.140625 112.441406 163.777344 113.414062 C 161.035156 113.984375 158.109375 114.519531 155.070312 115.015625 C 154.695312 113.785156 154.285156 112.535156 153.835938 111.277344 C 149.285156 98.566406 142.992188 91.339844 135.101562 89.734375 C 134.257812 89.429688 133.347656 89.257812 132.394531 89.257812 L 130.355469 89.257812 C 125.71875 93.8125 119.371094 96.628906 112.375 96.628906 C 105.378906 96.628906 99.03125 93.8125 94.390625 89.257812 L 92.355469 89.257812 C 91.402344 89.257812 90.492188 89.429688 89.648438 89.734375 C 81.753906 91.339844 75.464844 98.566406 70.914062 111.277344 C 70.464844 112.535156 70.054688 113.789062 69.675781 115.015625 C 66.640625 114.523438 63.710938 113.988281 60.96875 113.414062 C 61.605469 112.441406 61.980469 111.300781 61.980469 110.070312 C 61.980469 106.574219 59 103.734375 55.324219 103.734375 C 51.648438 103.734375 48.671875 106.570312 48.671875 110.070312 C 47.28125 119.808594 47.046875 132.40625 47.484375 144.652344 C 44.386719 146.003906 42.304688 149.171875 42.515625 152.746094 C 42.726562 156.324219 45.167969 159.234375 48.402344 160.210938 C 49.410156 172.398438 50.957031 182.5625 52.453125 186.679688 C 54.28125 191.726562 67.570312 194.523438 81.421875 196.042969 Z M 169.242188 106.285156 C 171.90625 106.285156 174.074219 108.210938 174.351562 110.675781 C 173.625 110.917969 172.859375 111.152344 172.0625 111.386719 C 171.960938 109.21875 170.097656 107.484375 167.796875 107.484375 C 166.667969 107.484375 165.648438 107.910156 164.882812 108.585938 C 165.800781 107.207031 167.402344 106.285156 169.242188 106.285156 Z M 55.507812 106.285156 C 57.347656 106.285156 58.953125 107.207031 59.867188 108.585938 C 59.101562 107.910156 58.082031 107.484375 56.957031 107.484375 C 54.652344 107.484375 52.789062 109.21875 52.691406 111.386719 C 51.890625 111.152344 51.128906 110.917969 50.402344 110.675781 C 50.679688 108.210938 52.84375 106.285156 55.507812 106.285156 Z M 55.375 185.617188 C 52.320312 177.199219 48.6875 138.75 51.292969 114.226562 C 67.300781 119.027344 96.574219 121.925781 112.375 121.925781 C 128.179688 121.925781 157.453125 119.027344 173.460938 114.226562 C 176.066406 138.75 172.433594 177.199219 169.378906 185.617188 C 167.660156 190.335938 140.496094 194.636719 112.375 194.636719 C 84.257812 194.636719 57.089844 190.335938 55.375 185.617188 Z M 55.375 185.617188 " fill-opacity="1" fill-rule="nonzero"/></g><path fill="#ffffff" d="M 135.695312 70.886719 C 135.695312 71.652344 135.660156 72.414062 135.582031 73.175781 C 135.507812 73.9375 135.398438 74.691406 135.246094 75.441406 C 135.097656 76.191406 134.914062 76.933594 134.691406 77.667969 C 134.46875 78.398438 134.214844 79.117188 133.921875 79.824219 C 133.628906 80.53125 133.300781 81.222656 132.941406 81.894531 C 132.582031 82.570312 132.191406 83.226562 131.765625 83.859375 C 131.339844 84.496094 130.886719 85.109375 130.402344 85.703125 C 129.917969 86.292969 129.40625 86.859375 128.867188 87.398438 C 128.324219 87.941406 127.761719 88.453125 127.171875 88.9375 C 126.578125 89.425781 125.96875 89.878906 125.332031 90.304688 C 124.695312 90.730469 124.042969 91.121094 123.367188 91.480469 C 122.695312 91.84375 122.007812 92.167969 121.300781 92.460938 C 120.59375 92.753906 119.875 93.011719 119.144531 93.234375 C 118.414062 93.457031 117.675781 93.640625 116.925781 93.789062 C 116.175781 93.941406 115.421875 94.050781 114.664062 94.128906 C 113.902344 94.203125 113.140625 94.238281 112.375 94.238281 C 111.613281 94.238281 110.851562 94.203125 110.089844 94.128906 C 109.332031 94.050781 108.574219 93.941406 107.828125 93.789062 C 107.078125 93.640625 106.339844 93.457031 105.605469 93.234375 C 104.875 93.011719 104.15625 92.753906 103.453125 92.460938 C 102.746094 92.167969 102.058594 91.84375 101.382812 91.480469 C 100.710938 91.121094 100.054688 90.730469 99.421875 90.304688 C 98.785156 89.878906 98.171875 89.425781 97.582031 88.9375 C 96.992188 88.453125 96.425781 87.941406 95.886719 87.398438 C 95.347656 86.859375 94.835938 86.292969 94.351562 85.703125 C 93.867188 85.109375 93.410156 84.496094 92.988281 83.859375 C 92.5625 83.226562 92.171875 82.570312 91.808594 81.894531 C 91.449219 81.222656 91.125 80.53125 90.832031 79.824219 C 90.539062 79.117188 90.28125 78.398438 90.0625 77.667969 C 89.839844 76.933594 89.652344 76.191406 89.503906 75.441406 C 89.355469 74.691406 89.242188 73.9375 89.167969 73.175781 C 89.09375 72.414062 89.058594 71.652344 89.058594 70.886719 C 89.058594 70.121094 89.09375 69.359375 89.167969 68.597656 C 89.242188 67.835938 89.355469 67.082031 89.503906 66.332031 C 89.652344 65.582031 89.839844 64.839844 90.0625 64.109375 C 90.28125 63.375 90.539062 62.65625 90.832031 61.949219 C 91.125 61.246094 91.449219 60.554688 91.808594 59.878906 C 92.171875 59.203125 92.5625 58.550781 92.988281 57.914062 C 93.410156 57.277344 93.867188 56.664062 94.351562 56.074219 C 94.835938 55.480469 95.347656 54.914062 95.886719 54.375 C 96.425781 53.835938 96.992188 53.320312 97.582031 52.835938 C 98.171875 52.351562 98.785156 51.894531 99.421875 51.472656 C 100.054688 51.046875 100.710938 50.652344 101.382812 50.292969 C 102.058594 49.933594 102.746094 49.605469 103.453125 49.3125 C 104.15625 49.019531 104.875 48.761719 105.605469 48.542969 C 106.339844 48.320312 107.078125 48.132812 107.828125 47.984375 C 108.574219 47.835938 109.332031 47.722656 110.089844 47.648438 C 110.851562 47.574219 111.613281 47.535156 112.375 47.535156 C 113.140625 47.535156 113.902344 47.574219 114.664062 47.648438 C 115.421875 47.722656 116.175781 47.835938 116.925781 47.984375 C 117.675781 48.132812 118.414062 48.320312 119.144531 48.542969 C 119.875 48.761719 120.59375 49.019531 121.300781 49.3125 C 122.007812 49.605469 122.695312 49.933594 123.367188 50.292969 C 124.042969 50.652344 124.695312 51.046875 125.332031 51.472656 C 125.96875 51.894531 126.578125 52.351562 127.171875 52.835938 C 127.761719 53.320312 128.324219 53.835938 128.867188 54.375 C 129.40625 54.914062 129.917969 55.480469 130.402344 56.074219 C 130.886719 56.664062 131.339844 57.277344 131.765625 57.914062 C 132.191406 58.550781 132.582031 59.203125 132.941406 59.878906 C 133.300781 60.554688 133.628906 61.246094 133.921875 61.949219 C 134.214844 62.65625 134.46875 63.375 134.691406 64.109375 C 134.914062 64.839844 135.097656 65.582031 135.246094 66.332031 C 135.398438 67.082031 135.507812 67.835938 135.582031 68.597656 C 135.660156 69.359375 135.695312 70.121094 135.695312 70.886719 Z M 135.695312 70.886719 " fill-opacity="1" fill-rule="nonzero"/><path fill="#ffffff" d="M 163.351562 57.328125 L 161.617188 54.320312 L 159.507812 55.539062 C 159.242188 55.234375 158.953125 54.949219 158.648438 54.683594 L 159.867188 52.566406 L 156.867188 50.832031 L 155.648438 52.945312 C 155.269531 52.8125 154.878906 52.703125 154.476562 52.625 L 154.476562 50.191406 L 151.011719 50.191406 L 151.011719 52.625 C 150.609375 52.703125 150.21875 52.8125 149.839844 52.945312 L 148.621094 50.832031 L 145.617188 52.566406 L 146.835938 54.683594 C 146.53125 54.949219 146.246094 55.234375 145.980469 55.539062 L 143.867188 54.320312 L 142.132812 57.328125 L 144.246094 58.546875 C 144.113281 58.925781 144.003906 59.316406 143.925781 59.71875 L 141.496094 59.71875 L 141.496094 63.191406 L 143.925781 63.191406 C 144.003906 63.59375 144.113281 63.984375 144.246094 64.363281 L 142.132812 65.582031 L 143.867188 68.589844 L 145.980469 67.371094 C 146.246094 67.675781 146.53125 67.960938 146.835938 68.226562 L 145.617188 70.34375 L 148.621094 72.078125 L 149.839844 69.964844 C 150.21875 70.09375 150.609375 70.207031 151.011719 70.285156 L 151.011719 72.71875 L 154.476562 72.71875 L 154.476562 70.285156 C 154.878906 70.207031 155.269531 70.09375 155.648438 69.964844 L 156.867188 72.078125 L 159.867188 70.34375 L 158.648438 68.226562 C 158.953125 67.960938 159.242188 67.675781 159.507812 67.371094 L 161.617188 68.589844 L 163.351562 65.582031 L 161.242188 64.363281 C 161.375 63.984375 161.480469 63.59375 161.5625 63.191406 L 163.992188 63.191406 L 163.992188 59.71875 L 161.5625 59.71875 C 161.480469 59.316406 161.371094 58.925781 161.242188 58.546875 Z M 152.742188 68.136719 C 149.058594 68.136719 146.074219 65.144531 146.074219 61.457031 C 146.074219 57.769531 149.058594 54.777344 152.742188 54.777344 C 156.425781 54.777344 159.414062 57.769531 159.414062 61.457031 C 159.414062 65.144531 156.425781 68.136719 152.742188 68.136719 Z M 152.742188 68.136719 " fill-opacity="1" fill-rule="nonzero"/><path fill="#ffffff" d="M 154.777344 61.457031 C 154.777344 61.726562 154.726562 61.988281 154.625 62.238281 C 154.519531 62.484375 154.375 62.707031 154.183594 62.898438 C 153.992188 63.089844 153.769531 63.234375 153.523438 63.339844 C 153.273438 63.441406 153.011719 63.496094 152.742188 63.496094 C 152.472656 63.496094 152.214844 63.441406 151.964844 63.339844 C 151.714844 63.234375 151.496094 63.089844 151.304688 62.898438 C 151.113281 62.707031 150.964844 62.484375 150.863281 62.238281 C 150.757812 61.988281 150.707031 61.726562 150.707031 61.457031 C 150.707031 61.1875 150.757812 60.925781 150.863281 60.675781 C 150.964844 60.425781 151.113281 60.207031 151.304688 60.015625 C 151.496094 59.824219 151.714844 59.675781 151.964844 59.574219 C 152.214844 59.46875 152.472656 59.417969 152.742188 59.417969 C 153.011719 59.417969 153.273438 59.46875 153.523438 59.574219 C 153.769531 59.675781 153.992188 59.824219 154.183594 60.015625 C 154.375 60.207031 154.519531 60.425781 154.625 60.675781 C 154.726562 60.925781 154.777344 61.1875 154.777344 61.457031 Z M 154.777344 61.457031 " fill-opacity="1" fill-rule="nonzero"/><g clip-path="url(#id2)"><path fill="#ffffff" d="M 139.039062 32.5 L 139.039062 30.820312 C 139.316406 30.765625 139.585938 30.691406 139.847656 30.601562 L 140.6875 32.058594 L 142.757812 30.859375 L 141.914062 29.402344 C 142.125 29.21875 142.324219 29.023438 142.507812 28.8125 L 143.960938 29.652344 L 145.15625 27.582031 L 143.703125 26.742188 C 143.792969 26.476562 143.867188 26.210938 143.921875 25.933594 L 145.597656 25.933594 L 145.597656 23.542969 L 143.921875 23.542969 C 143.867188 23.265625 143.792969 22.996094 143.703125 22.734375 L 145.15625 21.890625 L 143.960938 19.820312 L 142.507812 20.660156 C 142.324219 20.449219 142.125 20.253906 141.914062 20.070312 L 142.757812 18.613281 L 140.6875 17.414062 L 139.847656 18.871094 C 139.585938 18.78125 139.316406 18.707031 139.039062 18.652344 L 139.039062 16.976562 L 136.652344 16.976562 L 136.652344 18.652344 C 136.375 18.707031 136.105469 18.78125 135.84375 18.871094 L 135.003906 17.417969 L 132.9375 18.613281 L 133.777344 20.070312 C 133.566406 20.253906 133.367188 20.453125 133.1875 20.664062 L 131.730469 19.820312 L 130.535156 21.890625 L 131.988281 22.734375 C 131.902344 22.996094 131.824219 23.265625 131.769531 23.542969 L 130.09375 23.542969 L 130.09375 25.933594 L 131.769531 25.933594 C 131.824219 26.210938 131.898438 26.480469 131.988281 26.742188 L 130.535156 27.582031 L 131.730469 29.652344 L 133.1875 28.8125 C 133.371094 29.023438 133.566406 29.21875 133.777344 29.402344 L 132.9375 30.859375 L 135.003906 32.058594 L 135.84375 30.601562 C 136.105469 30.691406 136.375 30.765625 136.652344 30.820312 L 136.652344 32.5 Z M 133.25 24.738281 C 133.25 22.195312 135.308594 20.132812 137.84375 20.132812 C 140.382812 20.132812 142.441406 22.195312 142.441406 24.738281 C 142.441406 27.277344 140.382812 29.339844 137.84375 29.339844 C 135.308594 29.339844 133.25 27.28125 133.25 24.738281 Z M 133.25 24.738281 " fill-opacity="1" fill-rule="nonzero"/></g><path fill="#ffffff" d="M 139.246094 24.738281 C 139.246094 24.921875 139.210938 25.101562 139.140625 25.273438 C 139.070312 25.445312 138.96875 25.597656 138.835938 25.730469 C 138.707031 25.863281 138.554688 25.964844 138.382812 26.035156 C 138.210938 26.105469 138.03125 26.140625 137.84375 26.140625 C 137.660156 26.140625 137.480469 26.105469 137.308594 26.035156 C 137.136719 25.964844 136.984375 25.863281 136.855469 25.730469 C 136.722656 25.597656 136.621094 25.445312 136.550781 25.273438 C 136.480469 25.101562 136.441406 24.921875 136.441406 24.738281 C 136.441406 24.550781 136.480469 24.371094 136.550781 24.199219 C 136.621094 24.027344 136.722656 23.875 136.855469 23.742188 C 136.984375 23.613281 137.136719 23.511719 137.308594 23.441406 C 137.480469 23.367188 137.660156 23.332031 137.84375 23.332031 C 138.03125 23.332031 138.210938 23.367188 138.382812 23.441406 C 138.554688 23.511719 138.707031 23.613281 138.835938 23.742188 C 138.96875 23.875 139.070312 24.027344 139.140625 24.199219 C 139.210938 24.371094 139.246094 24.550781 139.246094 24.738281 Z M 139.246094 24.738281 " fill-opacity="1" fill-rule="nonzero"/><path fill="#ffffff" d="M 132.164062 47.210938 C 133.726562 47.210938 134.996094 45.9375 134.996094 44.378906 C 134.996094 42.8125 133.722656 41.542969 132.164062 41.542969 C 131.574219 41.542969 131.027344 41.722656 130.574219 42.035156 L 125.085938 36.496094 C 125.402344 36.039062 125.59375 35.484375 125.59375 34.886719 C 125.59375 33.320312 124.320312 32.050781 122.761719 32.050781 C 121.378906 32.050781 120.226562 33.050781 119.984375 34.367188 L 116.136719 34.367188 C 115.894531 33.050781 114.742188 32.050781 113.359375 32.050781 C 112.726562 32.050781 112.152344 32.265625 111.679688 32.617188 L 106.34375 27.671875 C 106.621094 27.234375 106.789062 26.71875 106.789062 26.164062 C 106.789062 24.601562 105.519531 23.332031 103.957031 23.332031 C 102.398438 23.332031 101.128906 24.601562 101.128906 26.164062 C 101.128906 26.71875 101.296875 27.234375 101.570312 27.671875 L 96.238281 32.621094 C 95.765625 32.269531 95.1875 32.050781 94.558594 32.050781 C 92.996094 32.050781 91.726562 33.324219 91.726562 34.886719 C 91.726562 36.449219 92.996094 37.71875 94.558594 37.71875 C 96.117188 37.71875 97.386719 36.449219 97.386719 34.886719 C 97.386719 34.332031 97.222656 33.816406 96.945312 33.378906 L 102.277344 28.433594 C 102.75 28.785156 103.328125 29 103.957031 29 C 104.589844 29 105.167969 28.785156 105.640625 28.433594 L 110.972656 33.378906 C 110.695312 33.816406 110.53125 34.332031 110.53125 34.886719 C 110.53125 36.449219 111.800781 37.71875 113.359375 37.71875 C 114.746094 37.71875 115.894531 36.71875 116.136719 35.40625 L 119.984375 35.40625 C 120.230469 36.71875 121.378906 37.71875 122.761719 37.71875 C 123.351562 37.71875 123.898438 37.539062 124.351562 37.230469 L 129.839844 42.769531 C 129.523438 43.226562 129.335938 43.78125 129.335938 44.378906 C 129.335938 45.9375 130.601562 47.210938 132.164062 47.210938 Z M 130.371094 44.378906 C 130.371094 43.386719 131.175781 42.582031 132.164062 42.582031 C 133.152344 42.582031 133.957031 43.386719 133.957031 44.378906 C 133.957031 45.367188 133.152344 46.171875 132.164062 46.171875 C 131.175781 46.171875 130.371094 45.367188 130.371094 44.378906 Z M 120.96875 34.882812 C 120.96875 33.894531 121.773438 33.085938 122.761719 33.085938 C 123.75 33.085938 124.554688 33.894531 124.554688 34.882812 C 124.554688 35.875 123.75 36.679688 122.761719 36.679688 C 121.773438 36.679688 120.96875 35.875 120.96875 34.882812 Z M 115.152344 34.882812 C 115.152344 35.875 114.347656 36.679688 113.359375 36.679688 C 112.371094 36.679688 111.566406 35.875 111.566406 34.882812 C 111.566406 33.894531 112.371094 33.085938 113.359375 33.085938 C 114.347656 33.085938 115.152344 33.894531 115.152344 34.882812 Z M 103.957031 27.960938 C 102.96875 27.960938 102.164062 27.152344 102.164062 26.164062 C 102.164062 25.171875 102.96875 24.367188 103.957031 24.367188 C 104.945312 24.367188 105.75 25.171875 105.75 26.164062 C 105.75 27.152344 104.945312 27.960938 103.957031 27.960938 Z M 96.347656 34.882812 C 96.347656 35.875 95.542969 36.679688 94.554688 36.679688 C 93.566406 36.679688 92.761719 35.875 92.761719 34.882812 C 92.761719 33.894531 93.566406 33.085938 94.554688 33.085938 C 95.542969 33.085938 96.347656 33.894531 96.347656 34.882812 Z M 96.347656 34.882812 " fill-opacity="1" fill-rule="nonzero"/><path fill="#ffffff" d="M 174.046875 79.253906 L 170.953125 79.253906 C 170.710938 78.140625 169.726562 77.308594 168.546875 77.308594 C 167.367188 77.308594 166.382812 78.140625 166.144531 79.253906 L 163.050781 79.253906 C 162.808594 78.140625 161.824219 77.308594 160.644531 77.308594 C 159.464844 77.308594 158.480469 78.140625 158.238281 79.253906 L 155.144531 79.253906 C 154.90625 78.140625 153.921875 77.308594 152.742188 77.308594 C 151.5625 77.308594 150.578125 78.140625 150.335938 79.253906 L 147.242188 79.253906 C 147.003906 78.140625 146.019531 77.308594 144.839844 77.308594 C 143.480469 77.308594 142.378906 78.410156 142.378906 79.773438 C 142.378906 81.132812 143.480469 82.238281 144.839844 82.238281 C 146.019531 82.238281 147.003906 81.402344 147.242188 80.289062 L 150.335938 80.289062 C 150.578125 81.402344 151.5625 82.238281 152.742188 82.238281 C 153.921875 82.238281 154.90625 81.402344 155.144531 80.289062 L 158.238281 80.289062 C 158.480469 81.402344 159.464844 82.238281 160.644531 82.238281 C 161.824219 82.238281 162.808594 81.402344 163.050781 80.289062 L 166.144531 80.289062 C 166.382812 81.402344 167.367188 82.238281 168.546875 82.238281 C 169.726562 82.238281 170.710938 81.402344 170.953125 80.289062 L 174.046875 80.289062 C 174.285156 81.402344 175.269531 82.238281 176.449219 82.238281 C 177.808594 82.238281 178.910156 81.132812 178.910156 79.773438 C 178.910156 78.410156 177.808594 77.308594 176.449219 77.308594 C 175.269531 77.308594 174.285156 78.140625 174.046875 79.253906 Z M 176.449219 81.199219 C 175.664062 81.199219 175.023438 80.558594 175.023438 79.773438 C 175.023438 78.984375 175.664062 78.34375 176.449219 78.34375 C 177.234375 78.34375 177.875 78.984375 177.875 79.773438 C 177.875 80.558594 177.234375 81.199219 176.449219 81.199219 Z M 169.972656 79.773438 C 169.972656 80.558594 169.332031 81.199219 168.546875 81.199219 C 167.761719 81.199219 167.121094 80.558594 167.121094 79.773438 C 167.121094 78.984375 167.761719 78.34375 168.546875 78.34375 C 169.332031 78.34375 169.972656 78.984375 169.972656 79.773438 Z M 162.070312 79.773438 C 162.070312 80.558594 161.429688 81.199219 160.644531 81.199219 C 159.859375 81.199219 159.21875 80.558594 159.21875 79.773438 C 159.21875 78.984375 159.859375 78.34375 160.644531 78.34375 C 161.429688 78.34375 162.070312 78.984375 162.070312 79.773438 Z M 154.167969 79.773438 C 154.167969 80.558594 153.527344 81.199219 152.742188 81.199219 C 151.957031 81.199219 151.316406 80.558594 151.316406 79.773438 C 151.316406 78.984375 151.957031 78.34375 152.742188 78.34375 C 153.527344 78.34375 154.167969 78.984375 154.167969 79.773438 Z M 146.265625 79.773438 C 146.265625 80.558594 145.625 81.199219 144.839844 81.199219 C 144.054688 81.199219 143.414062 80.558594 143.414062 79.773438 C 143.414062 78.984375 144.054688 78.34375 144.839844 78.34375 C 145.625 78.34375 146.265625 78.984375 146.265625 79.773438 Z M 146.265625 79.773438 " fill-opacity="1" fill-rule="nonzero"/><path fill="#ffffff" d="M 63.480469 79.355469 L 60.035156 80.503906 L 58.816406 76.839844 L 56.078125 77.75 L 57.296875 81.414062 L 53.851562 82.5625 L 54.742188 85.257812 L 58.191406 84.109375 L 59.390625 87.726562 L 62.128906 86.816406 L 60.929688 83.199219 L 64.375 82.050781 Z M 63.480469 79.355469 " fill-opacity="1" fill-rule="nonzero"/><path fill="#ffffff" d="M 154.980469 34.710938 L 151.53125 35.859375 L 152.425781 38.554688 L 155.875 37.40625 L 157.074219 41.023438 L 159.8125 40.109375 L 158.613281 36.496094 L 162.058594 35.347656 L 161.164062 32.652344 L 157.714844 33.800781 L 156.5 30.136719 L 153.761719 31.046875 Z M 154.980469 34.710938 " fill-opacity="1" fill-rule="nonzero"/><path fill="#ffffff" d="M 75.679688 82.121094 L 77.085938 78.582031 L 80.457031 79.925781 L 81.507812 77.285156 L 78.132812 75.941406 L 79.558594 72.355469 L 76.875 71.285156 L 75.449219 74.875 L 72.074219 73.53125 L 71.027344 76.167969 L 74.402344 77.511719 L 72.996094 81.054688 Z M 75.679688 82.121094 " fill-opacity="1" fill-rule="nonzero"/><path fill="#ffffff" d="M 62.984375 48.136719 L 65.058594 48.136719 L 65.058594 59.378906 L 62.984375 59.378906 Z M 62.984375 48.136719 " fill-opacity="1" fill-rule="nonzero"/><path fill="#ffffff" d="M 66.925781 40.699219 L 68.996094 40.699219 L 68.996094 59.378906 L 66.925781 59.378906 Z M 66.925781 40.699219 " fill-opacity="1" fill-rule="nonzero"/><path fill="#ffffff" d="M 70.867188 43.984375 L 72.9375 43.984375 L 72.9375 59.378906 L 70.867188 59.378906 Z M 70.867188 43.984375 " fill-opacity="1" fill-rule="nonzero"/><path fill="#ffffff" d="M 74.804688 40.699219 L 76.878906 40.699219 L 76.878906 59.378906 L 74.804688 59.378906 Z M 74.804688 40.699219 " fill-opacity="1" fill-rule="nonzero"/><path fill="#ffffff" d="M 78.746094 46.40625 L 80.820312 46.40625 L 80.820312 59.378906 L 78.746094 59.378906 Z M 78.746094 46.40625 " fill-opacity="1" fill-rule="nonzero"/><path fill="#ffffff" d="M 60.976562 60.765625 L 82.828125 60.765625 L 82.828125 61.457031 L 60.976562 61.457031 Z M 60.976562 60.765625 " fill-opacity="1" fill-rule="nonzero"/></svg>