<svg xmlns="http://www.w3.org/2000/svg" xmlns:xlink="http://www.w3.org/1999/xlink" width="100" zoomAndPan="magnify" viewBox="0 0 75 74.999997" height="100" preserveAspectRatio="xMidYMid meet" version="1.0"><defs><clipPath id="id1"><path d="M 1.058594 1.058594 L 61 1.058594 L 61 73.808594 L 1.058594 73.808594 Z M 1.058594 1.058594 " clip-rule="nonzero"/></clipPath><clipPath id="id2"><path d="M 62 23 L 73.808594 23 L 73.808594 73.808594 L 62 73.808594 Z M 62 23 " clip-rule="nonzero"/></clipPath></defs><g clip-path="url(#id1)"><path fill="#560216" d="M 58.371094 71.605469 L 3.257812 71.605469 L 3.257812 3.257812 L 38.867188 3.257812 L 38.867188 21.007812 C 38.867188 21.671875 39.304688 22.113281 39.964844 22.113281 L 58.371094 22.113281 Z M 41.066406 4.691406 L 56.71875 19.792969 L 41.066406 19.792969 Z M 60.46875 20.457031 C 60.359375 20.347656 60.359375 20.238281 60.25 20.121094 L 40.738281 1.277344 C 40.628906 1.167969 40.519531 1.058594 40.300781 1.058594 C 40.183594 1.058594 40.074219 1.058594 39.964844 1.058594 L 2.160156 1.058594 C 1.496094 1.058594 1.058594 1.496094 1.058594 2.160156 L 1.058594 72.703125 C 1.058594 73.367188 1.496094 73.808594 2.160156 73.808594 L 59.480469 73.808594 C 60.140625 73.808594 60.578125 73.367188 60.578125 72.703125 L 60.578125 21.007812 C 60.578125 20.898438 60.578125 20.570312 60.46875 20.457031 " fill-opacity="1" fill-rule="nonzero"/></g><g clip-path="url(#id2)"><path fill="#560216" d="M 68.515625 68.957031 L 65.539062 59.703125 L 71.164062 59.703125 Z M 67.304688 26.1875 L 68.738281 26.1875 C 70.171875 26.1875 71.273438 27.511719 71.273438 29.164062 L 71.273438 32.472656 L 64.875 32.472656 L 64.875 29.164062 C 64.875 27.511719 65.980469 26.1875 67.304688 26.1875 Z M 64.875 34.675781 L 71.273438 34.675781 L 71.597656 57.382812 L 65.210938 57.382812 Z M 73.808594 58.488281 L 73.585938 33.578125 L 73.585938 29.054688 C 73.585938 26.1875 71.378906 23.984375 68.847656 23.984375 L 67.414062 23.984375 C 64.765625 23.984375 62.671875 26.40625 62.789062 29.164062 L 63.113281 58.488281 L 63.113281 58.816406 L 67.632812 73.03125 C 67.75 73.476562 68.179688 73.808594 68.738281 73.808594 C 69.175781 73.808594 69.621094 73.476562 69.835938 73.03125 L 73.808594 58.816406 L 73.808594 58.488281 " fill-opacity="1" fill-rule="nonzero"/></g><path fill="#560216" d="M 52.203125 41.953125 L 38.53125 41.953125 L 38.53125 29.605469 L 52.203125 29.605469 Z M 53.300781 27.402344 L 37.433594 27.402344 C 36.773438 27.402344 36.328125 27.839844 36.328125 28.507812 L 36.328125 43.058594 C 36.328125 43.714844 36.773438 44.15625 37.433594 44.15625 L 53.300781 44.15625 C 53.964844 44.15625 54.40625 43.714844 54.40625 43.058594 L 54.40625 28.507812 C 54.40625 27.949219 53.964844 27.402344 53.300781 27.402344 " fill-opacity="1" fill-rule="nonzero"/><path fill="#560216" d="M 42.390625 39.304688 C 42.613281 39.523438 42.832031 39.75 43.167969 39.75 L 43.269531 39.75 C 43.492188 39.75 43.824219 39.640625 44.046875 39.414062 L 50.660156 33.464844 C 51.097656 33.019531 51.097656 32.363281 50.769531 31.921875 C 50.328125 31.476562 49.671875 31.476562 49.226562 31.8125 L 43.605469 36.882812 L 42.0625 34.453125 C 41.726562 33.90625 41.066406 33.796875 40.519531 34.125 C 39.964844 34.453125 39.859375 35.121094 40.183594 35.667969 L 42.390625 39.304688 " fill-opacity="1" fill-rule="nonzero"/><path fill="#560216" d="M 10.203125 25.75 C 10.203125 22.660156 12.742188 20.238281 15.71875 20.238281 L 23.429688 20.238281 C 26.515625 20.238281 28.945312 22.769531 28.945312 25.75 L 28.945312 28.0625 L 10.203125 28.0625 Z M 19.683594 7.671875 C 22.222656 7.671875 24.316406 9.761719 24.316406 12.300781 C 24.316406 14.832031 22.222656 16.933594 19.683594 16.933594 C 17.152344 16.933594 15.058594 14.832031 15.058594 12.300781 C 15.058594 9.761719 17.152344 7.671875 19.683594 7.671875 Z M 9.105469 30.269531 L 30.042969 30.269531 C 30.707031 30.269531 31.148438 29.824219 31.148438 29.164062 L 31.148438 25.75 C 31.148438 21.445312 27.621094 18.03125 23.429688 18.03125 L 23.328125 18.03125 C 25.199219 16.816406 26.515625 14.722656 26.515625 12.300781 C 26.515625 8.550781 23.429688 5.46875 19.683594 5.46875 C 15.9375 5.46875 12.851562 8.550781 12.851562 12.300781 C 12.851562 14.722656 14.175781 16.816406 16.046875 18.03125 L 15.71875 18.03125 C 11.417969 18.03125 8 21.558594 8 25.75 L 8 29.164062 C 8 29.714844 8.550781 30.269531 9.105469 30.269531 " fill-opacity="1" fill-rule="nonzero"/><path fill="#560216" d="M 9.433594 34.675781 C 8.773438 34.675781 8.328125 35.121094 8.328125 35.777344 C 8.328125 36.4375 8.773438 36.882812 9.433594 36.882812 L 30.820312 36.882812 C 31.476562 36.882812 31.921875 36.4375 31.921875 35.777344 C 31.921875 35.121094 31.476562 34.675781 30.820312 34.675781 L 9.433594 34.675781 " fill-opacity="1" fill-rule="nonzero"/><path fill="#560216" d="M 30.820312 42.171875 L 9.433594 42.171875 C 8.773438 42.171875 8.328125 42.613281 8.328125 43.269531 C 8.328125 43.9375 8.773438 44.375 9.433594 44.375 L 30.820312 44.375 C 31.476562 44.375 31.921875 43.9375 31.921875 43.269531 C 31.921875 42.722656 31.476562 42.171875 30.820312 42.171875 " fill-opacity="1" fill-rule="nonzero"/><path fill="#560216" d="M 51.757812 49.78125 L 9.433594 49.78125 C 8.773438 49.78125 8.328125 50.21875 8.328125 50.878906 C 8.328125 51.539062 8.773438 51.984375 9.433594 51.984375 L 51.757812 51.984375 C 52.421875 51.984375 52.867188 51.539062 52.867188 50.878906 C 52.867188 50.21875 52.421875 49.78125 51.757812 49.78125 " fill-opacity="1" fill-rule="nonzero"/><path fill="#560216" d="M 51.757812 57.273438 L 9.433594 57.273438 C 8.773438 57.273438 8.328125 57.710938 8.328125 58.378906 C 8.328125 59.035156 8.773438 59.476562 9.433594 59.476562 L 51.757812 59.476562 C 52.421875 59.476562 52.867188 59.035156 52.867188 58.378906 C 52.867188 57.820312 52.421875 57.273438 51.757812 57.273438 " fill-opacity="1" fill-rule="nonzero"/><path fill="#560216" d="M 51.757812 64.882812 L 9.433594 64.882812 C 8.773438 64.882812 8.328125 65.320312 8.328125 65.980469 C 8.328125 66.644531 8.773438 67.082031 9.433594 67.082031 L 51.757812 67.082031 C 52.421875 67.082031 52.867188 66.644531 52.867188 65.980469 C 52.867188 65.320312 52.421875 64.882812 51.757812 64.882812 " fill-opacity="1" fill-rule="nonzero"/></svg>