<svg xmlns="http://www.w3.org/2000/svg" xmlns:xlink="http://www.w3.org/1999/xlink" width="100" zoomAndPan="magnify" viewBox="0 0 75 74.999997" height="100" preserveAspectRatio="xMidYMid meet" version="1.0"><defs><clipPath id="id1"><path d="M 0.679688 0.679688 L 74.179688 0.679688 L 74.179688 74 L 0.679688 74 Z M 0.679688 0.679688 " clip-rule="nonzero"/></clipPath></defs><g clip-path="url(#id1)"><path fill="#560216" d="M 73.402344 63.316406 L 70.605469 63.316406 L 70.605469 25.949219 C 70.605469 25.496094 70.5625 25.050781 70.472656 24.609375 C 70.386719 24.167969 70.253906 23.742188 70.082031 23.324219 C 69.910156 22.910156 69.699219 22.515625 69.449219 22.140625 C 69.199219 21.765625 68.914062 21.421875 68.597656 21.101562 C 68.277344 20.785156 67.933594 20.5 67.558594 20.25 C 67.183594 20 66.789062 19.789062 66.375 19.617188 C 65.957031 19.441406 65.53125 19.3125 65.089844 19.226562 C 64.648438 19.136719 64.203125 19.09375 63.75 19.089844 L 55.011719 19.089844 L 55.011719 4.804688 C 55.007812 4.285156 54.910156 3.785156 54.710938 3.304688 C 54.511719 2.824219 54.230469 2.402344 53.863281 2.035156 C 53.496094 1.667969 53.070312 1.382812 52.589844 1.183594 C 52.113281 0.984375 51.613281 0.886719 51.09375 0.886719 L 34.976562 0.886719 C 34.960938 0.886719 34.945312 0.894531 34.929688 0.894531 C 34.851562 0.898438 34.777344 0.914062 34.707031 0.941406 C 34.679688 0.949219 34.65625 0.957031 34.632812 0.964844 C 34.542969 1.003906 34.464844 1.058594 34.394531 1.125 L 20.171875 15.347656 C 20.105469 15.417969 20.050781 15.496094 20.011719 15.585938 C 20.003906 15.609375 19.992188 15.636719 19.984375 15.660156 C 19.960938 15.730469 19.945312 15.804688 19.941406 15.878906 C 19.941406 15.898438 19.933594 15.910156 19.933594 15.929688 L 19.933594 19.089844 L 11.191406 19.089844 C 10.738281 19.089844 10.292969 19.136719 9.851562 19.222656 C 9.410156 19.3125 8.984375 19.441406 8.566406 19.613281 C 8.152344 19.789062 7.757812 20 7.382812 20.25 C 7.007812 20.5 6.664062 20.78125 6.34375 21.101562 C 6.027344 21.417969 5.742188 21.765625 5.492188 22.140625 C 5.242188 22.515625 5.03125 22.910156 4.859375 23.324219 C 4.6875 23.738281 4.554688 24.167969 4.46875 24.609375 C 4.378906 25.050781 4.335938 25.496094 4.332031 25.945312 L 4.332031 63.3125 L 1.535156 63.3125 C 1.308594 63.3125 1.113281 63.394531 0.953125 63.554688 C 0.792969 63.714844 0.710938 63.910156 0.710938 64.136719 C 0.710938 64.78125 0.773438 65.421875 0.902344 66.054688 C 1.027344 66.6875 1.210938 67.300781 1.460938 67.898438 C 1.707031 68.496094 2.007812 69.0625 2.367188 69.597656 C 2.726562 70.136719 3.132812 70.632812 3.589844 71.089844 C 4.042969 71.546875 4.539062 71.953125 5.078125 72.3125 C 5.613281 72.671875 6.179688 72.972656 6.773438 73.222656 C 7.371094 73.46875 7.984375 73.65625 8.617188 73.78125 C 9.25 73.910156 9.890625 73.972656 10.535156 73.972656 L 64.40625 73.972656 C 65.050781 73.972656 65.6875 73.910156 66.320312 73.78125 C 66.953125 73.65625 67.566406 73.46875 68.164062 73.21875 C 68.757812 72.972656 69.324219 72.671875 69.859375 72.3125 C 70.394531 71.953125 70.890625 71.546875 71.347656 71.089844 C 71.804688 70.632812 72.210938 70.136719 72.570312 69.601562 C 72.925781 69.0625 73.230469 68.496094 73.476562 67.902344 C 73.722656 67.304688 73.910156 66.691406 74.035156 66.058594 C 74.160156 65.425781 74.222656 64.789062 74.226562 64.144531 C 74.226562 63.914062 74.144531 63.722656 73.984375 63.558594 C 73.824219 63.398438 73.628906 63.316406 73.402344 63.316406 Z M 63.75 20.738281 C 64.09375 20.738281 64.433594 20.773438 64.765625 20.839844 C 65.101562 20.90625 65.429688 21.003906 65.742188 21.136719 C 66.058594 21.265625 66.359375 21.425781 66.644531 21.617188 C 66.929688 21.808594 67.191406 22.023438 67.433594 22.265625 C 67.675781 22.507812 67.890625 22.769531 68.082031 23.054688 C 68.269531 23.339844 68.433594 23.640625 68.5625 23.953125 C 68.695312 24.269531 68.792969 24.597656 68.859375 24.933594 C 68.925781 25.265625 68.960938 25.605469 68.960938 25.949219 L 68.960938 63.316406 L 66.679688 63.316406 L 66.679688 30.582031 C 66.679688 30.179688 66.640625 29.78125 66.5625 29.386719 C 66.484375 28.996094 66.367188 28.613281 66.214844 28.242188 C 66.0625 27.871094 65.875 27.515625 65.648438 27.183594 C 65.425781 26.847656 65.171875 26.539062 64.890625 26.253906 C 64.605469 25.972656 64.296875 25.71875 63.964844 25.492188 C 63.628906 25.269531 63.277344 25.082031 62.90625 24.925781 C 62.535156 24.773438 62.152344 24.65625 61.757812 24.578125 C 61.367188 24.5 60.96875 24.457031 60.566406 24.457031 L 55.011719 24.457031 L 55.011719 20.738281 Z M 23.847656 49.667969 L 51.09375 49.667969 C 51.609375 49.667969 52.109375 49.570312 52.589844 49.371094 C 53.070312 49.171875 53.492188 48.890625 53.859375 48.523438 C 54.226562 48.15625 54.511719 47.734375 54.710938 47.253906 C 54.910156 46.777344 55.007812 46.277344 55.011719 45.757812 L 55.011719 26.105469 L 60.566406 26.105469 C 60.859375 26.105469 61.148438 26.132812 61.4375 26.191406 C 61.726562 26.25 62.003906 26.335938 62.277344 26.449219 C 62.546875 26.558594 62.804688 26.699219 63.050781 26.863281 C 63.292969 27.027344 63.519531 27.210938 63.726562 27.417969 C 63.933594 27.625 64.117188 27.851562 64.28125 28.097656 C 64.445312 28.339844 64.582031 28.597656 64.695312 28.871094 C 64.808594 29.140625 64.890625 29.421875 64.949219 29.710938 C 65.007812 29.996094 65.035156 30.289062 65.035156 30.582031 L 65.035156 63.316406 L 9.90625 63.316406 L 9.90625 30.582031 C 9.90625 30.289062 9.933594 29.996094 9.992188 29.710938 C 10.050781 29.421875 10.132812 29.140625 10.246094 28.871094 C 10.359375 28.597656 10.496094 28.339844 10.660156 28.097656 C 10.824219 27.851562 11.007812 27.625 11.214844 27.417969 C 11.421875 27.210938 11.648438 27.027344 11.890625 26.863281 C 12.136719 26.699219 12.394531 26.558594 12.664062 26.449219 C 12.9375 26.335938 13.214844 26.25 13.503906 26.191406 C 13.792969 26.132812 14.082031 26.105469 14.375 26.105469 L 19.929688 26.105469 L 19.929688 45.757812 C 19.933594 46.277344 20.03125 46.777344 20.230469 47.253906 C 20.429688 47.734375 20.714844 48.15625 21.082031 48.523438 C 21.449219 48.890625 21.871094 49.171875 22.351562 49.371094 C 22.832031 49.570312 23.332031 49.667969 23.847656 49.667969 Z M 53.363281 4.804688 L 53.363281 45.757812 C 53.363281 46.058594 53.304688 46.347656 53.1875 46.625 C 53.074219 46.902344 52.910156 47.148438 52.695312 47.359375 C 52.484375 47.574219 52.238281 47.734375 51.960938 47.851562 C 51.683594 47.964844 51.394531 48.023438 51.09375 48.023438 L 23.847656 48.023438 C 23.546875 48.023438 23.257812 47.964844 22.980469 47.851562 C 22.703125 47.734375 22.457031 47.574219 22.246094 47.359375 C 22.03125 47.148438 21.867188 46.902344 21.753906 46.625 C 21.636719 46.347656 21.578125 46.058594 21.578125 45.757812 L 21.578125 16.753906 L 31.882812 16.753906 C 32.402344 16.753906 32.902344 16.652344 33.378906 16.453125 C 33.859375 16.253906 34.285156 15.972656 34.652344 15.605469 C 35.019531 15.238281 35.300781 14.8125 35.5 14.335938 C 35.699219 13.855469 35.800781 13.355469 35.800781 12.835938 L 35.800781 2.53125 L 51.09375 2.53125 C 51.394531 2.53125 51.683594 2.589844 51.960938 2.703125 C 52.238281 2.820312 52.484375 2.984375 52.699219 3.199219 C 52.910156 3.410156 53.074219 3.65625 53.191406 3.933594 C 53.304688 4.210938 53.363281 4.503906 53.363281 4.804688 Z M 34.152344 3.695312 L 34.152344 12.835938 C 34.152344 13.136719 34.09375 13.425781 33.980469 13.707031 C 33.863281 13.984375 33.699219 14.230469 33.488281 14.441406 C 33.273438 14.65625 33.027344 14.820312 32.75 14.933594 C 32.472656 15.050781 32.183594 15.109375 31.882812 15.109375 L 22.738281 15.109375 Z M 5.980469 25.949219 C 5.980469 25.605469 6.015625 25.265625 6.082031 24.933594 C 6.148438 24.597656 6.246094 24.269531 6.378906 23.953125 C 6.507812 23.640625 6.671875 23.339844 6.859375 23.054688 C 7.050781 22.769531 7.265625 22.507812 7.507812 22.265625 C 7.75 22.023438 8.011719 21.808594 8.296875 21.617188 C 8.582031 21.425781 8.882812 21.265625 9.199219 21.136719 C 9.511719 21.003906 9.839844 20.90625 10.175781 20.839844 C 10.507812 20.773438 10.847656 20.738281 11.191406 20.738281 L 19.929688 20.738281 L 19.929688 24.457031 L 14.375 24.457031 C 13.972656 24.457031 13.574219 24.5 13.183594 24.578125 C 12.789062 24.65625 12.40625 24.773438 12.035156 24.925781 C 11.664062 25.082031 11.3125 25.269531 10.976562 25.492188 C 10.644531 25.71875 10.335938 25.972656 10.050781 26.253906 C 9.769531 26.539062 9.515625 26.847656 9.292969 27.183594 C 9.066406 27.515625 8.878906 27.871094 8.726562 28.242188 C 8.574219 28.613281 8.457031 28.996094 8.378906 29.386719 C 8.300781 29.78125 8.261719 30.179688 8.261719 30.582031 L 8.261719 63.316406 L 5.980469 63.316406 Z M 25.566406 72.328125 C 26.082031 71.667969 26.714844 71.15625 27.464844 70.792969 C 28.214844 70.425781 29.011719 70.242188 29.847656 70.246094 L 45.09375 70.246094 C 45.929688 70.242188 46.726562 70.425781 47.476562 70.792969 C 48.226562 71.15625 48.859375 71.667969 49.375 72.328125 Z M 64.40625 72.328125 L 64.027344 72.328125 L 64.027344 69.417969 C 64.027344 69.191406 63.945312 69 63.785156 68.835938 C 63.625 68.675781 63.429688 68.597656 63.203125 68.597656 C 62.976562 68.597656 62.78125 68.675781 62.621094 68.835938 C 62.460938 69 62.378906 69.191406 62.378906 69.417969 L 62.378906 72.328125 L 60.078125 72.328125 L 60.078125 69.417969 C 60.078125 69.191406 59.996094 69 59.835938 68.835938 C 59.675781 68.675781 59.480469 68.597656 59.253906 68.597656 C 59.027344 68.597656 58.832031 68.675781 58.671875 68.835938 C 58.511719 69 58.429688 69.191406 58.429688 69.417969 L 58.429688 72.328125 L 56.132812 72.328125 L 56.132812 69.417969 C 56.132812 69.191406 56.054688 69 55.894531 68.835938 C 55.734375 68.675781 55.539062 68.597656 55.3125 68.597656 C 55.085938 68.597656 54.890625 68.675781 54.730469 68.835938 C 54.570312 69 54.488281 69.191406 54.488281 69.417969 L 54.488281 72.328125 L 51.308594 72.328125 C 51.007812 71.765625 50.640625 71.25 50.199219 70.789062 C 49.757812 70.328125 49.265625 69.929688 48.71875 69.601562 C 48.171875 69.273438 47.589844 69.023438 46.976562 68.855469 C 46.359375 68.683594 45.734375 68.597656 45.09375 68.597656 L 29.847656 68.597656 C 29.207031 68.597656 28.582031 68.683594 27.964844 68.855469 C 27.351562 69.023438 26.769531 69.273438 26.222656 69.601562 C 25.675781 69.929688 25.183594 70.328125 24.742188 70.789062 C 24.300781 71.25 23.933594 71.765625 23.632812 72.328125 L 20.453125 72.328125 L 20.453125 69.417969 C 20.453125 69.191406 20.371094 69 20.210938 68.835938 C 20.050781 68.675781 19.855469 68.597656 19.628906 68.597656 C 19.402344 68.597656 19.207031 68.675781 19.046875 68.835938 C 18.886719 69 18.808594 69.191406 18.808594 69.417969 L 18.808594 72.328125 L 16.507812 72.328125 L 16.507812 69.417969 C 16.507812 69.191406 16.425781 69 16.265625 68.835938 C 16.105469 68.675781 15.910156 68.597656 15.683594 68.597656 C 15.457031 68.597656 15.261719 68.675781 15.101562 68.835938 C 14.941406 69 14.859375 69.191406 14.859375 69.417969 L 14.859375 72.328125 L 12.554688 72.328125 L 12.554688 69.417969 C 12.554688 69.191406 12.476562 69 12.316406 68.835938 C 12.15625 68.675781 11.960938 68.597656 11.734375 68.597656 C 11.507812 68.597656 11.3125 68.675781 11.152344 68.835938 C 10.992188 69 10.910156 69.191406 10.910156 69.417969 L 10.910156 72.328125 L 10.53125 72.328125 C 10.03125 72.328125 9.53125 72.28125 9.039062 72.1875 C 8.542969 72.09375 8.0625 71.957031 7.59375 71.777344 C 7.125 71.597656 6.679688 71.375 6.25 71.109375 C 5.824219 70.847656 5.421875 70.546875 5.050781 70.210938 C 4.679688 69.871094 4.339844 69.503906 4.035156 69.105469 C 3.730469 68.707031 3.464844 68.28125 3.238281 67.835938 C 3.011719 67.386719 2.828125 66.921875 2.6875 66.4375 C 2.546875 65.957031 2.449219 65.464844 2.398438 64.964844 L 72.539062 64.964844 C 72.488281 65.464844 72.390625 65.957031 72.25 66.4375 C 72.109375 66.921875 71.925781 67.386719 71.699219 67.832031 C 71.472656 68.28125 71.207031 68.707031 70.902344 69.105469 C 70.597656 69.503906 70.257812 69.871094 69.886719 70.210938 C 69.515625 70.546875 69.113281 70.847656 68.6875 71.109375 C 68.257812 71.375 67.8125 71.597656 67.34375 71.777344 C 66.875 71.957031 66.394531 72.09375 65.898438 72.1875 C 65.40625 72.28125 64.90625 72.328125 64.40625 72.328125 Z M 61.75 55.421875 L 61.75 44.710938 C 61.75 44.484375 61.832031 44.289062 61.992188 44.128906 C 62.152344 43.96875 62.347656 43.890625 62.574219 43.890625 C 62.800781 43.890625 62.996094 43.96875 63.15625 44.128906 C 63.316406 44.289062 63.398438 44.484375 63.398438 44.710938 L 63.398438 55.421875 C 63.398438 55.648438 63.316406 55.839844 63.15625 56.003906 C 62.996094 56.164062 62.800781 56.242188 62.574219 56.242188 C 62.347656 56.242188 62.152344 56.164062 61.992188 56.003906 C 61.832031 55.839844 61.75 55.648438 61.75 55.421875 Z M 61.75 40.359375 L 61.75 35.371094 C 61.75 35.144531 61.832031 34.949219 61.992188 34.789062 C 62.152344 34.628906 62.347656 34.546875 62.574219 34.546875 C 62.800781 34.546875 62.996094 34.628906 63.15625 34.789062 C 63.316406 34.949219 63.398438 35.144531 63.398438 35.371094 L 63.398438 40.355469 C 63.398438 40.582031 63.316406 40.773438 63.15625 40.9375 C 62.996094 41.097656 62.800781 41.175781 62.574219 41.175781 C 62.347656 41.175781 62.152344 41.097656 61.992188 40.9375 C 61.832031 40.773438 61.75 40.582031 61.75 40.355469 Z M 37.46875 10.542969 L 50.722656 10.542969 C 50.949219 10.542969 51.144531 10.460938 51.304688 10.300781 C 51.464844 10.140625 51.546875 9.945312 51.546875 9.71875 L 51.546875 6.695312 C 51.546875 6.46875 51.464844 6.273438 51.304688 6.113281 C 51.144531 5.953125 50.949219 5.871094 50.722656 5.871094 L 37.46875 5.871094 C 37.242188 5.871094 37.050781 5.953125 36.890625 6.113281 C 36.726562 6.273438 36.648438 6.46875 36.648438 6.695312 L 36.648438 9.71875 C 36.648438 9.945312 36.726562 10.140625 36.890625 10.300781 C 37.050781 10.460938 37.242188 10.542969 37.46875 10.542969 Z M 38.292969 7.519531 L 49.898438 7.519531 L 49.898438 8.894531 L 38.292969 8.894531 Z M 51.546875 19.667969 C 51.546875 19.894531 51.464844 20.089844 51.304688 20.25 C 51.144531 20.410156 50.949219 20.492188 50.722656 20.492188 L 25.574219 20.492188 C 25.34375 20.492188 25.152344 20.410156 24.992188 20.25 C 24.828125 20.089844 24.75 19.894531 24.75 19.667969 C 24.75 19.441406 24.828125 19.246094 24.992188 19.085938 C 25.152344 18.925781 25.34375 18.84375 25.574219 18.84375 L 50.722656 18.84375 C 50.949219 18.84375 51.144531 18.925781 51.304688 19.085938 C 51.464844 19.246094 51.546875 19.441406 51.546875 19.667969 Z M 24.75 22.640625 C 24.75 22.414062 24.828125 22.21875 24.992188 22.058594 C 25.152344 21.898438 25.34375 21.816406 25.574219 21.816406 L 40.695312 21.816406 C 40.921875 21.816406 41.113281 21.898438 41.277344 22.058594 C 41.4375 22.21875 41.515625 22.414062 41.515625 22.640625 C 41.515625 22.867188 41.4375 23.0625 41.277344 23.222656 C 41.113281 23.382812 40.921875 23.464844 40.695312 23.464844 L 25.574219 23.464844 C 25.34375 23.464844 25.152344 23.382812 24.992188 23.222656 C 24.828125 23.0625 24.75 22.867188 24.75 22.640625 Z M 24.75 25.613281 C 24.75 25.386719 24.828125 25.191406 24.992188 25.03125 C 25.152344 24.871094 25.34375 24.792969 25.574219 24.792969 L 44.097656 24.792969 C 44.324219 24.792969 44.519531 24.871094 44.679688 25.03125 C 44.839844 25.191406 44.917969 25.386719 44.917969 25.613281 C 44.917969 25.839844 44.839844 26.035156 44.679688 26.195312 C 44.519531 26.355469 44.324219 26.4375 44.097656 26.4375 L 25.574219 26.4375 C 25.34375 26.4375 25.152344 26.355469 24.992188 26.195312 C 24.828125 26.035156 24.75 25.839844 24.75 25.613281 Z M 24.75 28.585938 C 24.75 28.359375 24.828125 28.167969 24.992188 28.003906 C 25.152344 27.84375 25.34375 27.765625 25.574219 27.765625 L 34.835938 27.765625 C 35.0625 27.765625 35.257812 27.84375 35.417969 28.003906 C 35.578125 28.167969 35.660156 28.359375 35.660156 28.585938 C 35.660156 28.816406 35.578125 29.007812 35.417969 29.167969 C 35.257812 29.328125 35.0625 29.410156 34.835938 29.410156 L 25.574219 29.410156 C 25.34375 29.410156 25.152344 29.328125 24.992188 29.167969 C 24.828125 29.007812 24.75 28.816406 24.75 28.585938 Z M 51.546875 34.535156 C 51.546875 34.761719 51.464844 34.957031 51.304688 35.117188 C 51.144531 35.277344 50.949219 35.355469 50.722656 35.355469 L 25.574219 35.355469 C 25.34375 35.355469 25.152344 35.277344 24.992188 35.117188 C 24.828125 34.957031 24.75 34.761719 24.75 34.535156 C 24.75 34.308594 24.828125 34.113281 24.992188 33.953125 C 25.152344 33.792969 25.34375 33.710938 25.574219 33.710938 L 50.722656 33.710938 C 50.949219 33.710938 51.144531 33.792969 51.304688 33.953125 C 51.464844 34.113281 51.546875 34.308594 51.546875 34.535156 Z M 47.964844 37.507812 C 47.964844 37.734375 47.882812 37.929688 47.722656 38.089844 C 47.5625 38.25 47.367188 38.328125 47.140625 38.328125 L 25.574219 38.328125 C 25.34375 38.328125 25.152344 38.25 24.992188 38.089844 C 24.828125 37.929688 24.75 37.734375 24.75 37.507812 C 24.75 37.28125 24.828125 37.085938 24.992188 36.925781 C 25.152344 36.765625 25.34375 36.683594 25.574219 36.683594 L 47.140625 36.683594 C 47.367188 36.683594 47.5625 36.765625 47.722656 36.925781 C 47.882812 37.085938 47.964844 37.28125 47.964844 37.507812 Z M 40.242188 40.480469 C 40.242188 40.707031 40.164062 40.902344 40.003906 41.0625 C 39.84375 41.222656 39.648438 41.304688 39.421875 41.304688 L 25.574219 41.304688 C 25.34375 41.304688 25.152344 41.222656 24.992188 41.0625 C 24.828125 40.902344 24.75 40.707031 24.75 40.480469 C 24.75 40.253906 24.828125 40.058594 24.992188 39.898438 C 25.152344 39.738281 25.34375 39.65625 25.574219 39.65625 L 39.421875 39.65625 C 39.648438 39.65625 39.84375 39.738281 40.003906 39.898438 C 40.164062 40.058594 40.242188 40.253906 40.242188 40.480469 Z M 31.570312 43.453125 C 31.570312 43.679688 31.488281 43.875 31.328125 44.035156 C 31.167969 44.195312 30.972656 44.277344 30.746094 44.277344 L 25.574219 44.277344 C 25.34375 44.277344 25.152344 44.195312 24.992188 44.035156 C 24.828125 43.875 24.75 43.679688 24.75 43.453125 C 24.75 43.226562 24.828125 43.03125 24.992188 42.871094 C 25.152344 42.710938 25.34375 42.628906 25.574219 42.628906 L 30.746094 42.628906 C 30.972656 42.628906 31.167969 42.710938 31.328125 42.871094 C 31.488281 43.03125 31.570312 43.226562 31.570312 43.453125 Z M 31.570312 43.453125 " fill-opacity="1" fill-rule="nonzero"/></g></svg>